<svg width="54" height="54" viewBox="0 0 54 54" fill="none" xmlns="http://www.w3.org/2000/svg">
<path d="M27.3179 4.35669L11.232 8.46371C5.39732 9.95343 2.91554 14.0762 4.48409 19.6542L9.79661 38.5462C11.3909 44.2156 15.6829 46.5305 21.5176 45.0407L37.6035 40.9337C43.5322 39.42 45.9386 35.3949 44.3443 29.7255L39.0318 10.8334C37.4633 5.25545 33.2466 2.84296 27.3179 4.35669Z" fill="url(#paint0_linear_908_78)"/>
<path d="M42.4444 13.6328H25.7911C22.6802 13.6328 20.1531 14.5018 18.4014 16.1786C16.6467 17.8582 15.7335 20.2875 15.7335 23.2778V42.8362C15.7335 45.8719 16.6455 48.3074 18.4022 49.9812C20.1553 51.6517 22.6831 52.5001 25.7911 52.5001H42.4444C45.5992 52.5001 48.1283 51.6526 49.8702 49.9799C51.6151 48.3042 52.5 45.8679 52.5 42.8362V23.2778C52.5 20.2915 51.614 17.8614 49.871 16.1799C48.1305 14.5008 45.6021 13.6328 42.4444 13.6328Z" fill="#E3C8B7" stroke="url(#paint1_linear_908_78)" stroke-linecap="round" stroke-linejoin="round"/>
<mask id="path-3-inside-1_908_78" fill="white">
<path fill-rule="evenodd" clip-rule="evenodd" d="M26.3273 22.9375V22.9564C25.4709 22.9564 24.7774 23.6191 24.7774 24.4333C24.7774 25.2474 25.4709 25.9101 26.3273 25.9101H32.2665C33.1229 25.9101 33.8184 25.2474 33.8184 24.4124C33.8184 23.6002 33.1229 22.9375 32.2665 22.9375H26.3273ZM41.9056 34.4682H26.3273C25.4709 34.4682 24.7775 33.8056 24.7775 32.9914C24.7775 32.1773 25.4709 31.5127 26.3273 31.5127H41.9056C42.76 31.5127 43.4555 32.1773 43.4555 32.9914C43.4555 33.8056 42.76 34.4682 41.9056 34.4682ZM41.9057 43.1208H26.3275C25.7314 43.1965 25.1551 42.9125 24.8372 42.4392C24.5193 41.9469 24.5193 41.3221 24.8372 40.8488C25.1551 40.3565 25.7314 40.0914 26.3275 40.1482H41.9057C42.6986 40.2239 43.2967 40.8677 43.2967 41.644C43.2967 42.3994 42.6986 43.0451 41.9057 43.1208Z"/>
</mask>
<path fill-rule="evenodd" clip-rule="evenodd" d="M26.3273 22.9375V22.9564C25.4709 22.9564 24.7774 23.6191 24.7774 24.4333C24.7774 25.2474 25.4709 25.9101 26.3273 25.9101H32.2665C33.1229 25.9101 33.8184 25.2474 33.8184 24.4124C33.8184 23.6002 33.1229 22.9375 32.2665 22.9375H26.3273ZM41.9056 34.4682H26.3273C25.4709 34.4682 24.7775 33.8056 24.7775 32.9914C24.7775 32.1773 25.4709 31.5127 26.3273 31.5127H41.9056C42.76 31.5127 43.4555 32.1773 43.4555 32.9914C43.4555 33.8056 42.76 34.4682 41.9056 34.4682ZM41.9057 43.1208H26.3275C25.7314 43.1965 25.1551 42.9125 24.8372 42.4392C24.5193 41.9469 24.5193 41.3221 24.8372 40.8488C25.1551 40.3565 25.7314 40.0914 26.3275 40.1482H41.9057C42.6986 40.2239 43.2967 40.8677 43.2967 41.644C43.2967 42.3994 42.6986 43.0451 41.9057 43.1208Z" fill="url(#paint2_linear_908_78)"/>
<path d="M26.3273 22.9564V23.3564H26.7273V22.9564H26.3273ZM26.3273 22.9375V22.5375H25.9273V22.9375H26.3273ZM26.3275 43.1208V42.7208H26.3022L26.2771 42.724L26.3275 43.1208ZM41.9057 43.1208V43.5208H41.9248L41.9438 43.519L41.9057 43.1208ZM24.8372 42.4392L24.5011 42.6562L24.5051 42.6622L24.8372 42.4392ZM24.8372 40.8488L25.1693 41.0718L25.1732 41.0658L24.8372 40.8488ZM26.3275 40.1482L26.2895 40.5464L26.3085 40.5482H26.3275V40.1482ZM41.9057 40.1482L41.9438 39.75L41.9248 39.7482H41.9057V40.1482ZM26.7273 22.9564V22.9375H25.9273V22.9564H26.7273ZM25.1774 24.4333C25.1774 23.8577 25.6737 23.3564 26.3273 23.3564V22.5564C25.2681 22.5564 24.3774 23.3805 24.3774 24.4333H25.1774ZM26.3273 25.5101C25.6737 25.5101 25.1774 25.0088 25.1774 24.4333H24.3774C24.3774 25.486 25.2681 26.3101 26.3273 26.3101V25.5101ZM32.2665 25.5101H26.3273V26.3101H32.2665V25.5101ZM33.4184 24.4124C33.4184 25.0118 32.9171 25.5101 32.2665 25.5101V26.3101C33.3288 26.3101 34.2184 25.4831 34.2184 24.4124H33.4184ZM32.2665 23.3375C32.9211 23.3375 33.4184 23.8397 33.4184 24.4124H34.2184C34.2184 23.3606 33.3248 22.5375 32.2665 22.5375V23.3375ZM26.3273 23.3375H32.2665V22.5375H26.3273V23.3375ZM26.3273 34.8682H41.9056V34.0682H26.3273V34.8682ZM24.3775 32.9914C24.3775 34.0441 25.2681 34.8682 26.3273 34.8682V34.0682C25.6738 34.0682 25.1775 33.567 25.1775 32.9914H24.3775ZM26.3273 31.1127C25.2674 31.1127 24.3775 31.9393 24.3775 32.9914H25.1775C25.1775 32.4152 25.6745 31.9127 26.3273 31.9127V31.1127ZM41.9056 31.1127H26.3273V31.9127H41.9056V31.1127ZM43.8555 32.9914C43.8555 31.939 42.9632 31.1127 41.9056 31.1127V31.9127C42.5569 31.9127 43.0555 32.4155 43.0555 32.9914H43.8555ZM41.9056 34.8682C42.9625 34.8682 43.8555 34.0445 43.8555 32.9914H43.0555C43.0555 33.5667 42.5575 34.0682 41.9056 34.0682V34.8682ZM26.3275 43.5208H41.9057V42.7208H26.3275V43.5208ZM24.5051 42.6622C24.9037 43.2556 25.6251 43.6132 26.3779 43.5176L26.2771 42.724C25.8376 42.7798 25.4066 42.5695 25.1693 42.2162L24.5051 42.6622ZM24.5051 40.6257C24.0949 41.2365 24.0997 42.0345 24.5012 42.6562L25.1732 42.2222C24.9389 41.8593 24.9436 41.4077 25.1693 41.0718L24.5051 40.6257ZM26.3654 39.75C25.6294 39.6799 24.9049 40.0067 24.5012 40.6317L25.1732 41.0658C25.4054 40.7063 25.8333 40.5029 26.2895 40.5464L26.3654 39.75ZM41.9057 39.7482H26.3275V40.5482H41.9057V39.7482ZM43.6967 41.644C43.6967 40.6535 42.9338 39.8446 41.9438 39.75L41.8677 40.5464C42.4634 40.6033 42.8967 41.0819 42.8967 41.644H43.6967ZM41.9438 43.519C42.9309 43.4247 43.6967 42.6164 43.6967 41.644H42.8967C42.8967 42.1824 42.4663 42.6654 41.8677 42.7226L41.9438 43.519Z" fill="url(#paint3_linear_908_78)" mask="url(#path-3-inside-1_908_78)"/>
<defs>
<linearGradient id="paint0_linear_908_78" x1="19.274" y1="6.41045" x2="28.6708" y2="43.2144" gradientUnits="userSpaceOnUse">
<stop stop-color="#E3C8B7"/>
<stop offset="1" stop-color="#DDAD96"/>
</linearGradient>
<linearGradient id="paint1_linear_908_78" x1="21.927" y1="18.5444" x2="46.3363" y2="47.0987" gradientUnits="userSpaceOnUse">
<stop stop-color="white" stop-opacity="0.25"/>
<stop offset="1" stop-color="white" stop-opacity="0"/>
</linearGradient>
<linearGradient id="paint2_linear_908_78" x1="42.1186" y1="26.5844" x2="21.1111" y2="27.2239" gradientUnits="userSpaceOnUse">
<stop stop-color="white"/>
<stop offset="1" stop-color="white" stop-opacity="0.2"/>
</linearGradient>
<linearGradient id="paint3_linear_908_78" x1="27.6004" y1="25.2903" x2="40.6409" y2="40.3706" gradientUnits="userSpaceOnUse">
<stop stop-color="white" stop-opacity="0.25"/>
<stop offset="1" stop-color="white" stop-opacity="0"/>
</linearGradient>
</defs>
</svg>
