<svg width="77" height="80" viewBox="0 0 77 80" fill="none" xmlns="http://www.w3.org/2000/svg">
<path d="M42.3177 20.3566L26.2319 24.4636C20.3972 25.9533 17.9154 30.076 19.484 35.654L24.7965 54.5461C26.3908 60.2155 30.6828 62.5303 36.5175 61.0406L52.6033 56.9336C58.5321 55.4199 60.9385 51.3948 59.3442 45.7254L54.0317 26.8333C52.4632 21.2553 48.2465 18.8428 42.3177 20.3566Z" fill="url(#paint0_linear_23_279)"/>
<g filter="url(#filter0_f_23_279)">
<rect width="24.5347" height="21.6632" rx="10.8316" transform="matrix(-0.270704 -0.962663 0.968918 -0.247383 31.3101 54.4501)" fill="#E3C8B7" fill-opacity="0.5"/>
</g>
<g filter="url(#filter1_b_23_279)">
<path d="M57.4443 30.1327H40.791C34.7504 30.1327 31.2334 33.5029 31.2334 39.2777V58.8361C31.2334 64.7056 34.7504 68 40.791 68H57.4443C63.5822 68 66.9999 64.7056 66.9999 58.8361V39.2777C66.9999 33.5029 63.5822 30.1327 57.4443 30.1327Z" fill="#E3C8B7" fill-opacity="0.35"/>
<path d="M57.4443 29.6327H40.791C37.6801 29.6327 35.153 30.5017 33.4012 32.1784C31.6465 33.8581 30.7334 36.2874 30.7334 39.2776V58.8361C30.7334 61.8717 31.6454 64.3072 33.4021 65.9811C35.1552 67.6516 37.683 68.5 40.791 68.5H57.4443C60.5991 68.5 63.1282 67.6525 64.8701 65.9798C66.615 64.3041 67.4999 61.8678 67.4999 58.8361V39.2776C67.4999 36.2914 66.6139 33.8612 64.8709 32.1798C63.1304 30.5007 60.602 29.6327 57.4443 29.6327Z" stroke="url(#paint1_linear_23_279)" stroke-linecap="round" stroke-linejoin="round"/>
</g>
<g filter="url(#filter2_bd_23_279)">
<mask id="path-5-inside-1_23_279" fill="white">
<path fill-rule="evenodd" clip-rule="evenodd" d="M41.3272 38.9376V38.9566C40.4708 38.9566 39.7773 39.6192 39.7773 40.4334C39.7773 41.2475 40.4708 41.9102 41.3272 41.9102H47.2664C48.1228 41.9102 48.8183 41.2475 48.8183 40.4126C48.8183 39.6003 48.1228 38.9376 47.2664 38.9376H41.3272ZM56.9055 50.4686H41.3272C40.4708 50.4686 39.7773 49.8059 39.7773 48.9917C39.7773 48.1776 40.4708 47.513 41.3272 47.513H56.9055C57.7599 47.513 58.4553 48.1776 58.4553 48.9917C58.4553 49.8059 57.7599 50.4686 56.9055 50.4686ZM56.9056 59.1211H41.3273C40.7312 59.1968 40.155 58.9128 39.8371 58.4395C39.5192 57.9472 39.5192 57.3224 39.8371 56.8491C40.155 56.3568 40.7312 56.0917 41.3273 56.1485H56.9056C57.6985 56.2243 58.2965 56.868 58.2965 57.6443C58.2965 58.3997 57.6985 59.0454 56.9056 59.1211Z"/>
</mask>
<path fill-rule="evenodd" clip-rule="evenodd" d="M41.3272 38.9376V38.9566C40.4708 38.9566 39.7773 39.6192 39.7773 40.4334C39.7773 41.2475 40.4708 41.9102 41.3272 41.9102H47.2664C48.1228 41.9102 48.8183 41.2475 48.8183 40.4126C48.8183 39.6003 48.1228 38.9376 47.2664 38.9376H41.3272ZM56.9055 50.4686H41.3272C40.4708 50.4686 39.7773 49.8059 39.7773 48.9917C39.7773 48.1776 40.4708 47.513 41.3272 47.513H56.9055C57.7599 47.513 58.4553 48.1776 58.4553 48.9917C58.4553 49.8059 57.7599 50.4686 56.9055 50.4686ZM56.9056 59.1211H41.3273C40.7312 59.1968 40.155 58.9128 39.8371 58.4395C39.5192 57.9472 39.5192 57.3224 39.8371 56.8491C40.155 56.3568 40.7312 56.0917 41.3273 56.1485H56.9056C57.6985 56.2243 58.2965 56.868 58.2965 57.6443C58.2965 58.3997 57.6985 59.0454 56.9056 59.1211Z" fill="url(#paint2_linear_23_279)"/>
<path d="M41.3272 38.9566V39.3566H41.7272V38.9566H41.3272ZM41.3272 38.9376V38.5376H40.9272V38.9376H41.3272ZM41.3273 59.1211V58.7211H41.302L41.2769 58.7243L41.3273 59.1211ZM56.9056 59.1211V59.5211H56.9247L56.9437 59.5193L56.9056 59.1211ZM39.8371 58.4395L39.501 58.6565L39.505 58.6625L39.8371 58.4395ZM39.8371 56.8491L40.1692 57.0721L40.1731 57.0661L39.8371 56.8491ZM41.3273 56.1485L41.2894 56.5467L41.3083 56.5485H41.3273V56.1485ZM56.9056 56.1485L56.9437 55.7503L56.9247 55.7485H56.9056V56.1485ZM41.7272 38.9566V38.9376H40.9272V38.9566H41.7272ZM40.1773 40.4334C40.1773 39.8578 40.6736 39.3566 41.3272 39.3566V38.5566C40.2679 38.5566 39.3773 39.3807 39.3773 40.4334H40.1773ZM41.3272 41.5102C40.6736 41.5102 40.1773 41.009 40.1773 40.4334H39.3773C39.3773 41.4861 40.2679 42.3102 41.3272 42.3102V41.5102ZM47.2664 41.5102H41.3272V42.3102H47.2664V41.5102ZM48.4183 40.4126C48.4183 41.0119 47.9169 41.5102 47.2664 41.5102V42.3102C48.3287 42.3102 49.2183 41.4832 49.2183 40.4126H48.4183ZM47.2664 39.3376C47.921 39.3376 48.4183 39.8398 48.4183 40.4126H49.2183C49.2183 39.3608 48.3246 38.5376 47.2664 38.5376V39.3376ZM41.3272 39.3376H47.2664V38.5376H41.3272V39.3376ZM41.3272 50.8686H56.9055V50.0686H41.3272V50.8686ZM39.3773 48.9917C39.3773 50.0444 40.2679 50.8686 41.3272 50.8686V50.0686C40.6736 50.0686 40.1773 49.5673 40.1773 48.9917H39.3773ZM41.3272 47.113C40.2673 47.113 39.3773 47.9397 39.3773 48.9917H40.1773C40.1773 48.4155 40.6743 47.913 41.3272 47.913V47.113ZM56.9055 47.113H41.3272V47.913H56.9055V47.113ZM58.8553 48.9917C58.8553 47.9393 57.9631 47.113 56.9055 47.113V47.913C57.5567 47.913 58.0553 48.4158 58.0553 48.9917H58.8553ZM56.9055 50.8686C57.9624 50.8686 58.8553 50.0448 58.8553 48.9917H58.0553C58.0553 49.567 57.5574 50.0686 56.9055 50.0686V50.8686ZM41.3273 59.5211H56.9056V58.7211H41.3273V59.5211ZM39.505 58.6625C39.9036 59.2559 40.625 59.6136 41.3778 59.5179L41.2769 58.7243C40.8375 58.7801 40.4064 58.5698 40.1691 58.2165L39.505 58.6625ZM39.505 56.626C39.0948 57.2368 39.0995 58.0348 39.5011 58.6565L40.1731 58.2225C39.9388 57.8596 39.9435 57.408 40.1691 57.0721L39.505 56.626ZM41.3653 55.7503C40.6293 55.6802 39.9047 56.007 39.5011 56.6321L40.1731 57.0661C40.4053 56.7066 40.8332 56.5032 41.2894 56.5467L41.3653 55.7503ZM56.9056 55.7485H41.3273V56.5485H56.9056V55.7485ZM58.6965 57.6443C58.6965 56.6538 57.9337 55.8449 56.9437 55.7503L56.8676 56.5467C57.4632 56.6036 57.8965 57.0822 57.8965 57.6443H58.6965ZM56.9437 59.5193C57.9308 59.425 58.6965 58.6168 58.6965 57.6443H57.8965C57.8965 58.1827 57.4661 58.6657 56.8676 58.7229L56.9437 59.5193Z" fill="url(#paint3_linear_23_279)" mask="url(#path-5-inside-1_23_279)"/>
</g>
<defs>
<filter id="filter0_f_23_279" x="0.195801" y="0.810425" width="76.5767" height="78.3015" filterUnits="userSpaceOnUse" color-interpolation-filters="sRGB">
<feFlood flood-opacity="0" result="BackgroundImageFix"/>
<feBlend mode="normal" in="SourceGraphic" in2="BackgroundImageFix" result="shape"/>
<feGaussianBlur stdDeviation="13.5" result="effect1_foregroundBlur_23_279"/>
</filter>
<filter id="filter1_b_23_279" x="6.2334" y="5.13269" width="85.7664" height="87.8673" filterUnits="userSpaceOnUse" color-interpolation-filters="sRGB">
<feFlood flood-opacity="0" result="BackgroundImageFix"/>
<feGaussianBlur in="BackgroundImage" stdDeviation="12"/>
<feComposite in2="SourceAlpha" operator="in" result="effect1_backgroundBlur_23_279"/>
<feBlend mode="normal" in="SourceGraphic" in2="effect1_backgroundBlur_23_279" result="shape"/>
</filter>
<filter id="filter2_bd_23_279" x="24.5986" y="23.9376" width="48.8567" height="50.1956" filterUnits="userSpaceOnUse" color-interpolation-filters="sRGB">
<feFlood flood-opacity="0" result="BackgroundImageFix"/>
<feGaussianBlur in="BackgroundImage" stdDeviation="7.5"/>
<feComposite in2="SourceAlpha" operator="in" result="effect1_backgroundBlur_23_279"/>
<feColorMatrix in="SourceAlpha" type="matrix" values="0 0 0 0 0 0 0 0 0 0 0 0 0 0 0 0 0 0 127 0" result="hardAlpha"/>
<feOffset dx="5" dy="5"/>
<feGaussianBlur stdDeviation="5"/>
<feColorMatrix type="matrix" values="0 0 0 0 0.890196 0 0 0 0 0.784314 0 0 0 0 0.717647 0 0 0 0.5 0"/>
<feBlend mode="normal" in2="effect1_backgroundBlur_23_279" result="effect2_dropShadow_23_279"/>
<feBlend mode="normal" in="SourceGraphic" in2="effect2_dropShadow_23_279" result="shape"/>
</filter>
<linearGradient id="paint0_linear_23_279" x1="34.2739" y1="22.4103" x2="43.6706" y2="59.2143" gradientUnits="userSpaceOnUse">
<stop stop-color="#E3C8B7"/>
<stop offset="1" stop-color="#DDAD96"/>
</linearGradient>
<linearGradient id="paint1_linear_23_279" x1="36.9268" y1="34.5443" x2="61.3361" y2="63.0985" gradientUnits="userSpaceOnUse">
<stop stop-color="white" stop-opacity="0.25"/>
<stop offset="1" stop-color="white" stop-opacity="0"/>
</linearGradient>
<linearGradient id="paint2_linear_23_279" x1="57.1184" y1="42.5846" x2="36.111" y2="43.2241" gradientUnits="userSpaceOnUse">
<stop stop-color="white"/>
<stop offset="1" stop-color="white" stop-opacity="0.2"/>
</linearGradient>
<linearGradient id="paint3_linear_23_279" x1="42.6003" y1="41.2904" x2="55.6409" y2="56.3708" gradientUnits="userSpaceOnUse">
<stop stop-color="white" stop-opacity="0.25"/>
<stop offset="1" stop-color="white" stop-opacity="0"/>
</linearGradient>
</defs>
</svg>
