<svg width="78" height="39" viewBox="0 0 78 39" fill="none" xmlns="http://www.w3.org/2000/svg">
<path d="M10.7379 0.73877V14.1176H9.42377V7.70632H1.80601V14.1176H0.492188V0.73877H1.80599V7.15008H9.42375V0.73877H10.7379Z" fill="#121127"/>
<path d="M35.0475 9.03005C35.0475 11.69 32.8501 13.8486 30.1504 13.8486C29.4129 13.8486 28.7141 13.6912 28.0902 13.399C27.9837 13.3535 27.8846 13.3012 27.7781 13.2487C27.7094 13.2115 27.6412 13.1733 27.5725 13.1137C27.474 13.0684 27.3901 13.0087 27.3065 12.9414C27.0099 12.7388 26.7437 12.4988 26.5003 12.2365V18.2999H25.1704V4.13379H26.5003V5.81332C27.3901 4.82416 28.6977 4.20211 30.1504 4.20211C31.0326 4.20211 31.8608 4.43493 32.576 4.83926C32.5832 4.83926 32.5915 4.83926 32.5987 4.84717C32.6138 4.85436 32.6364 4.86945 32.6516 4.89159C34.0889 5.72346 35.0475 7.26797 35.0475 9.03005ZM32.3562 5.43112C32.3332 5.41603 32.3101 5.40093 32.2874 5.37879C32.264 5.3716 32.2488 5.35651 32.2187 5.34917L31.9745 5.22924C31.6481 5.09422 31.3057 5.03455 30.9487 5.03455C30.531 5.03455 30.1043 5.1165 29.6789 5.28804C28.7132 5.67039 27.8682 6.41237 27.2985 7.40153C26.1281 9.38044 26.4319 11.6954 27.945 12.625C27.9676 12.6401 27.9908 12.6552 28.0134 12.6703C28.12 12.7308 28.2181 12.7752 28.3327 12.8206C29.0089 13.0977 29.8152 13.0835 30.6211 12.7609C31.5797 12.3931 32.4237 11.6369 33.0018 10.6549C34.1656 8.66939 33.869 6.35357 32.3562 5.43112Z" fill="#121127"/>
<path d="M47.2172 9.03005C47.2172 11.69 45.0198 13.8486 42.3201 13.8486C41.5826 13.8486 40.8838 13.6912 40.2599 13.399C40.1534 13.3535 40.0543 13.3012 39.9478 13.2487C39.8791 13.2115 39.8109 13.1733 39.7422 13.1137C39.6437 13.0684 39.5598 13.0087 39.4762 12.9414C39.1796 12.7388 38.9133 12.4988 38.67 12.2365V18.2999H37.3401V4.13379H38.67V5.81332C39.5598 4.82416 40.8674 4.20211 42.3201 4.20211C43.2022 4.20211 44.0305 4.43493 44.7457 4.83926C44.7529 4.83926 44.7612 4.83926 44.7683 4.84717C44.7835 4.85436 44.8061 4.86945 44.8213 4.89159C46.2586 5.72346 47.2172 7.26797 47.2172 9.03005ZM44.5259 5.43112C44.503 5.41603 44.4798 5.40093 44.4572 5.37879C44.4337 5.3716 44.4185 5.35651 44.3885 5.34917L44.1442 5.22924C43.8178 5.09422 43.4754 5.03455 43.1184 5.03455C42.7007 5.03455 42.2741 5.1165 41.8486 5.28804C40.8829 5.67039 40.038 6.41237 39.4682 7.40153C38.2978 9.38044 38.6016 11.6954 40.1147 12.625C40.1373 12.6401 40.1606 12.6552 40.1831 12.6703C40.2897 12.7308 40.3878 12.7752 40.5024 12.8206C41.1786 13.0977 41.9849 13.0835 42.7908 12.7609C43.7494 12.3931 44.5935 11.6369 45.1715 10.6549C46.3354 8.66939 46.0387 6.35357 44.5259 5.43112Z" fill="#121127"/>
<path d="M57.4583 4.44338L51.993 18.5929H51.1948L52.6957 14.6341L48.3411 4.44336H49.9292L53.3327 12.9419L56.4991 4.44336H57.4583V4.44338Z" fill="#121127"/>
<path d="M18.4137 20.6069L13.8034 33.9644H12.1896L9.45293 22.4818L6.67819 33.9644H5.10228L0.492188 20.6069H2.47272L5.94483 33.5248L8.84497 20.6069H10.1631L13.1555 33.5248L16.5361 20.6069H18.4137Z" fill="#121127"/>
<path d="M26.5114 30.143H28.0912C27.6639 32.3202 25.7132 33.9645 23.3756 33.9645C22.658 33.9645 21.9729 33.8056 21.36 33.5197C21.2633 33.4801 21.1669 33.4244 21.0619 33.3766C20.9976 33.337 20.9247 33.2972 20.8602 33.2496C20.7638 33.2019 20.6828 33.1382 20.5945 33.0746C19.3771 32.2245 18.5872 30.8186 18.5872 29.2455C18.5872 26.6314 20.7394 24.5186 23.3756 24.5186C24.2461 24.5186 25.0601 24.7487 25.7533 25.146C25.7616 25.146 25.7697 25.146 25.7777 25.1539C25.7938 25.1619 25.8179 25.1777 25.8339 25.1938C27.043 25.9005 27.9055 27.1241 28.1233 28.5544H20.167C19.5708 30.2465 19.9736 31.9944 21.2231 32.7649C21.2472 32.7808 21.2716 32.7966 21.2957 32.8048C21.3924 32.8682 21.4891 32.916 21.6018 32.9635C22.2709 33.2335 23.0611 33.2177 23.843 32.8998C24.7781 32.5345 25.6084 31.7956 26.1805 30.8344C26.3097 30.6119 26.4224 30.3735 26.5114 30.143ZM20.3848 28.0378H26.8416C26.761 27.0528 26.3177 26.2028 25.5439 25.7181C25.5195 25.7102 25.4954 25.6944 25.4713 25.6782C25.4472 25.6703 25.4311 25.6545 25.4067 25.6466L25.1648 25.5275C24.8507 25.392 24.5121 25.3366 24.1572 25.3366C23.7543 25.3366 23.3432 25.4161 22.916 25.5829C21.9729 25.9562 21.1505 26.6872 20.5865 27.6566C20.5136 27.7835 20.4413 27.9108 20.3848 28.0378Z" fill="#121127"/>
<path d="M39.5447 20.5923V33.9647H38.2726V32.3107C37.397 33.2753 36.121 33.882 34.7048 33.882C33.9851 33.882 33.3101 33.729 32.6945 33.4437C32.5975 33.4 32.4943 33.3484 32.3979 33.2974C32.331 33.2607 32.264 33.2244 32.1899 33.1657C32.101 33.1211 32.0189 33.0631 31.9302 32.9971C30.7217 32.1494 29.928 30.7528 29.928 29.1812C29.928 26.5786 32.0787 24.4733 34.7048 24.4733C35.5724 24.4733 36.3807 24.7006 37.0706 25.0952C37.0781 25.0952 37.0936 25.0952 37.1007 25.1026C37.115 25.1096 37.1376 25.124 37.1522 25.1463C37.5681 25.3949 37.9462 25.6946 38.2726 26.0526V20.5923H39.5447ZM36.8635 25.672C36.8409 25.6579 36.8121 25.6435 36.7895 25.6212C36.7669 25.6139 36.7523 25.599 36.7297 25.5919L36.4848 25.4749C36.1736 25.3438 35.8398 25.2852 35.4834 25.2852C35.0829 25.2852 34.667 25.3652 34.2445 25.5339C33.3101 25.9065 32.4791 26.6302 31.9237 27.5946C30.7886 29.5254 31.0853 31.784 32.5612 32.6904C32.5841 32.7048 32.6055 32.72 32.6281 32.734C32.7242 32.793 32.8284 32.8367 32.9322 32.8804C33.5998 33.1513 34.3864 33.1369 35.1722 32.8223C36.1066 32.464 36.9304 31.7251 37.4939 30.7677C38.6281 28.8311 38.3315 26.5715 36.8635 25.672Z" fill="#121127"/>
<path d="M51.438 20.5923V33.9647H50.1659V32.3107C49.2903 33.2753 48.0143 33.882 46.5981 33.882C45.8784 33.882 45.2034 33.729 44.5878 33.4437C44.4908 33.4 44.3876 33.3484 44.2912 33.2974C44.2243 33.2607 44.1573 33.2244 44.0833 33.1657C43.9943 33.1211 43.9122 33.0631 43.8235 32.9971C42.615 32.1494 41.8213 30.7528 41.8213 29.1812C41.8213 26.5786 43.972 24.4733 46.5981 24.4733C47.4657 24.4733 48.274 24.7006 48.9639 25.0952C48.9714 25.0952 48.9868 25.0952 48.994 25.1026C49.0083 25.1096 49.0309 25.124 49.0454 25.1463C49.4614 25.3949 49.8395 25.6946 50.1659 26.0526V20.5923H51.438ZM48.7569 25.672C48.7342 25.6579 48.7054 25.6435 48.6828 25.6212C48.6602 25.6139 48.6456 25.599 48.623 25.5919L48.3781 25.4749C48.0669 25.3438 47.7331 25.2852 47.3767 25.2852C46.9763 25.2852 46.5603 25.3652 46.1379 25.5339C45.2034 25.9065 44.3724 26.6302 43.817 27.5946C42.682 29.5254 42.9786 31.784 44.4545 32.6904C44.4774 32.7048 44.4989 32.72 44.5215 32.734C44.6176 32.793 44.7217 32.8367 44.8255 32.8804C45.4931 33.1513 46.2798 33.1369 47.0655 32.8223C47.9999 32.464 48.8238 31.7251 49.3872 30.7677C50.5214 28.8311 50.2248 26.5715 48.7569 25.672Z" fill="#121127"/>
<path d="M53.991 21.7179C53.991 21.2608 54.367 20.8901 54.8308 20.8901C55.2947 20.8901 55.6707 21.2608 55.6707 21.7179C55.6707 22.175 55.2947 22.5459 54.8308 22.5459C54.367 22.5459 53.991 22.175 53.991 21.7179ZM54.1707 33.9646V24.2738H55.491V33.9646H54.1707Z" fill="#121127"/>
<path d="M58.2383 33.9649V24.2803H59.5601V25.917C59.5601 25.917 60.7603 24.4711 62.7361 24.4711C64.7121 24.4711 67.0634 26.3612 67.0634 28.7357C67.0634 31.1104 67.1377 33.9649 67.1377 33.9649H65.8802C65.8802 33.9649 65.8802 31.8103 65.8802 29.5048C65.8802 27.1992 64.7377 25.1224 62.6879 25.1224C60.6377 25.1224 59.5337 26.9767 59.5337 29.6605C59.5337 32.3443 59.5337 33.9649 59.5337 33.9649H58.2383V33.9649Z" fill="#121127"/>
<path d="M77.506 35.4439C77.6003 37.6691 73.7615 38.9634 71.4335 38.0799C71.2684 38.033 71.1265 37.994 70.9774 37.909C70.8983 37.8852 70.82 37.8471 70.7492 37.8081C67.7601 36.3432 68.7354 33.2964 72.094 32.9325C69.278 32.6387 68.5149 30.7193 69.9778 30.0836C67.9163 26.751 71.881 22.8049 75.2869 24.782C75.3181 24.782 75.3416 24.8201 75.3731 24.8363C75.3812 24.828 75.3883 24.828 75.3964 24.8201C75.884 24.5026 76.4743 24.3167 77.0868 24.2624C77.1659 24.5413 77.2368 24.8201 77.2915 25.1069C77.2995 25.1069 77.2995 25.1148 77.2995 25.123C76.8667 25.1304 76.4266 25.1849 76.0411 25.3321C77.4667 26.5903 77.6946 29.0143 76.4427 30.4871C75.4359 31.8594 73.2802 32.4171 71.6998 31.6265C71.6135 31.5955 71.5352 31.5494 71.4561 31.5104C71.4005 31.4796 71.3377 31.4486 71.2829 31.4017C71.2118 31.3709 71.1416 31.3166 71.0708 31.2627C70.7168 31.0149 70.4017 30.712 70.1583 30.3634C69.9536 30.4481 69.7255 30.6032 69.718 30.89C69.7019 32.3399 72.833 32.3748 73.926 32.5766C74.6023 32.7006 74.9715 32.7935 75.1449 32.8633C75.153 32.8633 75.153 32.8633 75.153 32.8633C75.2157 32.8794 75.2788 32.9023 75.3416 32.9255H75.3648C75.3812 32.9325 75.3963 32.9404 75.4124 32.9484C76.6629 33.453 77.5045 34.3833 77.506 35.4439ZM75.1521 33.275C74.8376 33.151 74.5154 33.058 74.1614 33.0501C74.0198 33.0501 73.9255 33.0422 73.9255 33.0422C73.5634 33.0422 73.1933 33.0882 72.816 33.197C70.6766 33.6157 68.8362 36.4998 71.3062 37.6161C71.3297 37.624 71.3457 37.631 71.3692 37.6471C71.4561 37.6779 71.5504 37.709 71.6447 37.7401C72.9892 38.1348 74.846 37.4994 75.7188 36.4297C76.7256 35.2357 76.4662 33.8327 75.1521 33.275ZM71.582 31.007C71.6054 31.0219 71.6215 31.0377 71.6447 31.0451C71.7239 31.092 71.8021 31.1307 71.8881 31.1688C73.1778 31.6884 74.6966 30.8513 75.4591 29.7039C75.6165 29.4799 75.7584 29.2313 75.8608 28.9832C76.3564 27.8514 76.3017 26.6501 75.7349 25.8517C75.5859 25.6268 75.3892 25.433 75.161 25.2858C75.1399 25.2746 75.1167 25.2573 75.0932 25.2406C75.1006 25.2444 75.1045 25.2494 75.1134 25.2547C75.0893 25.2397 75.0658 25.2247 75.0346 25.2086C75.0191 25.2007 75.0191 25.1928 75.0031 25.1928L74.8064 25.0919C71.6367 23.9449 68.9082 29.3629 71.582 31.007Z" fill="#121127"/>
<path d="M23.6626 5.49527C23.6748 5.15598 23.687 4.81369 23.6961 4.4744L21.6854 2.83203C21.3473 2.90709 21.0091 2.97915 20.674 3.05422C20.7989 3.86792 20.9207 4.68459 21.0487 5.49829C21.0487 5.51329 21.0517 5.52531 21.0548 5.54033C20.8812 5.40221 20.6953 5.27611 20.5003 5.162C20.4851 5.147 20.4607 5.13196 20.4455 5.12296C20.4364 5.11696 20.4303 5.11696 20.4211 5.11696C19.7083 4.70861 18.8796 4.47743 17.9961 4.47743C15.306 4.47743 13.1064 6.63626 13.1064 9.29649C13.1064 10.9059 13.9138 12.3411 15.1567 13.2028C15.2451 13.2718 15.3304 13.3349 15.4248 13.3799C15.4949 13.434 15.565 13.473 15.6351 13.512C15.7356 13.5661 15.8392 13.6201 15.9397 13.6592C16.5642 13.9504 17.2619 14.1126 17.9961 14.1126C19.3548 14.1126 20.5856 13.5661 21.4752 12.6833V14.2867H22.8462V9.96302C22.8797 9.74383 22.8949 9.52165 22.8949 9.29644C22.8949 7.80419 22.2003 6.46806 21.1158 5.58832H21.1554C21.9931 5.55833 22.8279 5.52529 23.6626 5.49527ZM20.8507 10.9238C20.2718 11.8997 19.428 12.6563 18.4744 13.0256C17.6671 13.3499 16.8628 13.3649 16.1804 13.0886C16.0738 13.0436 15.9702 12.9956 15.8696 12.9355C15.8453 12.9205 15.824 12.9025 15.7996 12.8875C14.2885 11.9627 13.9838 9.65075 15.1507 7.67809C15.7204 6.69025 16.5642 5.94261 17.5269 5.5643C17.9596 5.39616 18.38 5.3091 18.7943 5.3091C19.1538 5.3091 19.498 5.37216 19.821 5.50426L20.0708 5.62737C20.1165 5.64839 20.1622 5.67241 20.2018 5.70243C21.7128 6.62723 22.0084 8.94216 20.8507 10.9238Z" fill="#121127"/>
<path d="M17.274 12.125C17.0303 12.5964 16.5032 12.8096 16.095 12.6054C15.6867 12.3982 15.5558 11.8488 15.7995 11.3804C16.0462 10.909 16.5733 10.6928 16.9815 10.9C17.3898 11.1042 17.5208 11.6536 17.274 12.125Z" fill="#121127"/>
<path d="M16.1408 9.96916C16.0037 10.4796 15.5772 10.8129 15.1903 10.7108C14.8004 10.6117 14.5962 10.1133 14.7333 9.60285C14.8674 9.08942 15.2939 8.75613 15.6838 8.85824C16.0738 8.96029 16.2779 9.45573 16.1408 9.96916Z" fill="#121127"/>
<path d="M19.5377 11.7257C19.1569 12.1011 18.5659 12.1251 18.2155 11.7798C17.8682 11.4345 17.8926 10.852 18.2703 10.4797C18.6511 10.1044 19.2422 10.0803 19.5925 10.4256C19.9399 10.7709 19.9155 11.3534 19.5377 11.7257Z" fill="#121127"/>
<path d="M17.1005 7.95124C16.7563 8.35959 16.2262 8.48569 15.9185 8.23348C15.6077 7.97828 15.6352 7.44383 15.9764 7.03548C16.3206 6.62713 16.8477 6.50403 17.1584 6.75626C17.4691 7.00844 17.4418 7.54589 17.1005 7.95124Z" fill="#121127"/>
<path d="M19.5926 7.51609C19.2941 7.95446 18.7426 8.10761 18.3618 7.85838C17.9841 7.60618 17.917 7.04468 18.2156 6.60634C18.5141 6.16797 19.0656 6.01482 19.4464 6.26405C19.8241 6.51625 19.8911 7.07472 19.5926 7.51609Z" fill="#121127"/>
<path d="M20.7471 9.42567C20.4486 9.86404 19.8728 10.0021 19.4615 9.73191C19.0502 9.45869 18.9588 8.88222 19.2574 8.44382C19.559 8.00243 20.1317 7.86735 20.543 8.13755C20.9543 8.4108 21.0457 8.98727 20.7471 9.42567Z" fill="#121127"/>
</svg>
