<svg width="54" height="54" viewBox="0 0 54 54" fill="none" xmlns="http://www.w3.org/2000/svg">
<path d="M43.809 22.9044C43.809 34.45 34.4501 43.8089 22.9046 43.8089C11.359 43.8089 2.00012 34.45 2.00012 22.9044C2.00012 11.361 11.359 2 22.9046 2C34.4501 2 43.809 11.361 43.809 22.9044Z" fill="url(#paint0_linear_908_88)"/>
<path d="M31.0955 52.4998C42.9171 52.4998 52.4999 42.917 52.4999 31.0954C52.4999 19.2758 42.9172 9.69092 31.0955 9.69092C19.2738 9.69092 9.69104 19.2758 9.69104 31.0954C9.69104 42.917 19.2738 52.4998 31.0955 52.4998Z" fill="#E3C8B7" stroke="url(#paint1_linear_908_88)" stroke-linecap="round" stroke-linejoin="round"/>
<path d="M38.8011 32.4659L38.8011 32.4659L38.7985 32.4694C38.7425 32.5442 38.4583 32.8799 38.2368 33.0964L38.1121 33.2184L38.112 33.2182L38.1064 33.2241C37.2497 34.1324 35.7429 35.2809 34.1667 36.3175C32.5915 37.3534 30.9672 38.2642 29.8833 38.7031L29.7584 38.7537V38.7616C29.7329 38.7722 29.7032 38.7843 29.6699 38.7976C29.5405 38.8492 29.3607 38.9168 29.1615 38.9843C28.7555 39.122 28.3005 39.2485 28.0223 39.2574H27.9422C27.0591 39.2574 26.2336 38.7712 25.8114 37.9835C25.7016 37.7767 25.5871 37.347 25.4949 36.9398C25.4499 36.7413 25.4119 36.5566 25.3837 36.4189L25.3834 36.4177C25.3695 36.35 25.3577 36.2925 25.3487 36.2513C25.3442 36.2308 25.3399 36.2119 25.336 36.197C25.3347 36.1918 25.3329 36.1852 25.3308 36.1783C25.1474 34.9699 25.0243 33.1205 25.0243 31.0855C25.0243 28.9374 25.1491 26.9996 25.3742 25.8194L25.3777 25.8008V25.7985L25.3839 25.7666C25.3903 25.7349 25.3996 25.6898 25.4113 25.6346C25.4348 25.5243 25.4676 25.3751 25.505 25.2153C25.5806 24.8912 25.6704 24.5429 25.7365 24.3753C25.9464 23.8941 26.3283 23.4801 26.8075 23.2165C27.1943 23.0301 27.598 22.9346 28.0206 22.9339C28.2337 22.9447 28.5544 23.0193 28.8783 23.1145C29.1998 23.209 29.5055 23.3182 29.6759 23.3868L29.6758 23.3868L29.6788 23.388C30.8226 23.8272 32.5023 24.7729 34.1145 25.8371C35.727 26.9015 37.25 28.0702 38.0863 28.9476L38.0862 28.9477L38.0913 28.9527C38.2337 29.0919 38.3821 29.2474 38.5065 29.3794C38.5348 29.4094 38.5623 29.4387 38.5884 29.4666C38.6651 29.5483 38.7299 29.6173 38.768 29.6549C39.0874 30.0635 39.2574 30.5643 39.2574 31.1058C39.2574 31.5932 39.1039 32.0793 38.8011 32.4659ZM25.3758 25.8091L25.3759 25.8083C25.3754 25.8123 25.3751 25.8133 25.3758 25.8091Z" fill="url(#paint2_linear_908_88)" stroke="url(#paint3_linear_908_88)" stroke-width="0.4"/>
<defs>
<linearGradient id="paint0_linear_908_88" x1="25.9825" y1="25.7041" x2="-10.7545" y2="43.5665" gradientUnits="userSpaceOnUse">
<stop stop-color="#E3C8B7"/>
<stop offset="1" stop-color="#DDAD96"/>
</linearGradient>
<linearGradient id="paint1_linear_908_88" x1="16.8463" y1="15.0617" x2="43.5159" y2="48.0927" gradientUnits="userSpaceOnUse">
<stop stop-color="white" stop-opacity="0.25"/>
<stop offset="1" stop-color="white" stop-opacity="0"/>
</linearGradient>
<linearGradient id="paint2_linear_908_88" x1="38.42" y1="25.7538" x2="22.116" y2="26.219" gradientUnits="userSpaceOnUse">
<stop stop-color="white"/>
<stop offset="1" stop-color="white" stop-opacity="0.2"/>
</linearGradient>
<linearGradient id="paint3_linear_908_88" x1="27.1537" y1="24.6822" x2="38.0314" y2="36.4705" gradientUnits="userSpaceOnUse">
<stop stop-color="white" stop-opacity="0.25"/>
<stop offset="1" stop-color="white" stop-opacity="0"/>
</linearGradient>
</defs>
</svg>
