<svg width="149" height="150" viewBox="0 0 149 150" fill="none" xmlns="http://www.w3.org/2000/svg">
<path d="M123.837 26.1153L132.431 32.1129C135.103 33.9781 134.519 38.0915 131.432 39.1432L121.699 42.459C118.509 43.5461 115.499 40.4238 116.702 37.2749L117.725 34.5968C117.958 33.9885 118.037 33.3325 117.957 32.6865L117.609 29.8718C117.185 26.4525 121.012 24.1441 123.837 26.1153Z" fill="#DDAD96" stroke="#DDAD96"/>
<path opacity="0.2" d="M115.298 32.363C115.849 32.409 116.257 32.8924 116.212 33.4427C116.166 33.9931 115.682 34.402 115.132 34.3561L115.298 32.363ZM48.485 100.09L49.1181 99.3156L48.485 100.09ZM48.9847 148.059C49.2236 148.557 49.0137 149.155 48.5157 149.394C48.0178 149.633 47.4205 149.423 47.1815 148.925L48.9847 148.059ZM46.0046 146.432C45.7721 145.931 45.9896 145.336 46.4905 145.104C46.9914 144.871 47.5861 145.089 47.8186 145.59L46.0046 146.432ZM45.6489 140.753C45.8682 141.26 45.6352 141.849 45.1283 142.068C44.6214 142.288 44.0327 142.055 43.8134 141.548L45.6489 140.753ZM41.7239 136.523C41.5194 136.01 41.7695 135.428 42.2826 135.223C42.7956 135.019 43.3773 135.269 43.5817 135.782L41.7239 136.523ZM41.6895 130.811C41.8777 131.331 41.6094 131.904 41.0901 132.092C40.5709 132.281 39.9974 132.012 39.8092 131.493L41.6895 130.811ZM38.0671 126.418C37.897 125.893 38.185 125.329 38.7105 125.159C39.2359 124.989 39.7998 125.277 39.9699 125.802L38.0671 126.418ZM38.4144 120.665C38.564 121.197 38.2543 121.749 37.7226 121.899C37.191 122.048 36.6387 121.738 36.4892 121.207L38.4144 120.665ZM35.1326 115.963C35.006 115.425 35.3392 114.887 35.8768 114.76C36.4144 114.634 36.9528 114.967 37.0794 115.504L35.1326 115.963ZM35.9846 110.31C36.0852 110.853 35.7266 111.375 35.1836 111.476C34.6405 111.576 34.1187 111.218 34.0181 110.675L35.9846 110.31ZM33.1737 105.336C33.1024 104.788 33.4887 104.287 34.0363 104.215C34.584 104.144 35.0857 104.53 35.157 105.078L33.1737 105.336ZM34.6312 99.8098C34.6689 100.361 34.2528 100.838 33.7018 100.876C33.1508 100.913 32.6735 100.497 32.6359 99.9463L34.6312 99.8098ZM32.4499 94.5158C32.4506 93.9635 32.8989 93.5164 33.4512 93.5171C34.0035 93.5178 34.4506 93.9661 34.4499 94.5184L32.4499 94.5158ZM34.6629 89.2301C34.6182 89.7805 34.1358 90.1905 33.5853 90.1458C33.0348 90.1012 32.6248 89.6187 32.6695 89.0682L34.6629 89.2301ZM33.3547 83.6448C33.4494 83.1007 33.9673 82.7364 34.5114 82.8311C35.0555 82.9258 35.4198 83.4437 35.3251 83.9878L33.3547 83.6448ZM36.4917 78.8538C36.3407 79.3851 35.7877 79.6934 35.2564 79.5424C34.7252 79.3914 34.4169 78.8384 34.5678 78.3071L36.4917 78.8538ZM36.3669 73.139C36.5796 72.6293 37.1653 72.3887 37.6749 72.6015C38.1846 72.8142 38.4252 73.3999 38.2125 73.9095L36.3669 73.139ZM40.5373 69.2299C40.2585 69.7066 39.646 69.8671 39.1693 69.5882C38.6926 69.3094 38.5321 68.6969 38.8109 68.2202L40.5373 69.2299ZM41.9356 63.6744C42.2817 63.244 42.9112 63.1758 43.3415 63.5219C43.7719 63.868 43.8402 64.4975 43.494 64.9279L41.9356 63.6744ZM47.0606 61.1476C46.6504 61.5174 46.0181 61.4847 45.6483 61.0746C45.2784 60.6644 45.3111 60.0321 45.7213 59.6622L47.0606 61.1476ZM50.1216 56.3157C50.5879 56.0197 51.2058 56.1578 51.5018 56.6241C51.7978 57.0903 51.6597 57.7083 51.1934 58.0042L50.1216 56.3157ZM55.7995 55.6102C55.2892 55.8215 54.7043 55.5791 54.493 55.0688C54.2817 54.5585 54.5242 53.9736 55.0344 53.7623L55.7995 55.6102ZM60.3135 52.0998C60.8528 51.9807 61.3865 52.3213 61.5057 52.8606C61.6248 53.3999 61.2842 53.9336 60.7449 54.0528L60.3135 52.0998ZM65.8855 53.3841C65.3337 53.4067 64.868 52.9778 64.8453 52.426C64.8226 51.8741 65.2516 51.4084 65.8034 51.3858L65.8855 53.3841ZM71.3379 51.6511C71.885 51.7266 72.2673 52.2314 72.1917 52.7785C72.1161 53.3256 71.6114 53.7078 71.0643 53.6323L71.3379 51.6511ZM76.1106 54.8012C75.5861 54.6282 75.3012 54.0627 75.4742 53.5382C75.6472 53.0138 76.2126 52.7288 76.7371 52.9018L76.1106 54.8012ZM81.8203 55.1165C82.304 55.3831 82.48 55.9913 82.2134 56.475C81.9468 56.9586 81.3386 57.1346 80.8549 56.8681L81.8203 55.1165ZM85.1326 59.779C84.7072 59.4268 84.6479 58.7965 85 58.371C85.3522 57.9456 85.9826 57.8863 86.408 58.2385L85.1326 59.779ZM90.3387 62.1985C90.6847 62.629 90.6163 63.2584 90.1859 63.6045C89.7554 63.9505 89.126 63.8821 88.7799 63.4516L90.3387 62.1985ZM91.5529 67.8095C91.3097 67.3137 91.5145 66.7145 92.0103 66.4713C92.5062 66.2281 93.1053 66.4329 93.3485 66.9287L91.5529 67.8095ZM95.254 72.1971C95.3851 72.7337 95.0564 73.2748 94.5199 73.4059C93.9834 73.537 93.4422 73.2083 93.3112 72.6718L95.254 72.1971ZM94.0151 77.8073C93.9957 77.2553 94.4274 76.7921 94.9794 76.7727C95.5313 76.7533 95.9945 77.185 96.0139 77.7369L94.0151 77.8073ZM95.6699 83.3065C95.5837 83.852 95.0716 84.2244 94.526 84.1382C93.9805 84.052 93.6082 83.5398 93.6944 82.9943L95.6699 83.3065ZM92.4123 88.0407C92.5963 87.52 93.1676 87.247 93.6884 87.4311C94.2091 87.6151 94.482 88.1864 94.298 88.7071L92.4123 88.0407ZM91.9809 93.7703C91.7073 94.25 91.0965 94.4172 90.6168 94.1435C90.1371 93.8699 89.97 93.2592 90.2436 92.7795L91.9809 93.7703ZM87.2695 97.0601C87.6236 96.6364 88.2543 96.58 88.6781 96.9341C89.1018 97.2883 89.1582 97.919 88.8041 98.3427L87.2695 97.0601ZM84.929 102.207C84.502 102.558 83.8719 102.495 83.5216 102.068C83.1712 101.642 83.2333 101.011 83.6603 100.661L84.929 102.207ZM79.515 103.422C80.003 103.163 80.6083 103.349 80.8669 103.837C81.1256 104.325 80.9397 104.93 80.4517 105.189L79.515 103.422ZM75.4704 107.219C74.9407 107.376 74.3845 107.073 74.2282 106.543C74.0719 106.014 74.3746 105.458 74.9043 105.301L75.4704 107.219ZM70.0096 106.231C70.5597 106.182 71.0455 106.588 71.0948 107.138C71.1441 107.688 70.7381 108.174 70.188 108.223L70.0096 106.231ZM64.8163 108.185C64.267 108.128 63.8674 107.637 63.9238 107.088C63.9803 106.538 64.4714 106.139 65.0208 106.195L64.8163 108.185ZM60.117 105.228C60.647 105.384 60.9507 105.939 60.7953 106.469C60.6399 106.999 60.0843 107.303 59.5543 107.147L60.117 105.228ZM54.5683 105.204C54.0725 104.96 53.8678 104.361 54.111 103.865C54.3543 103.369 54.9535 103.165 55.4493 103.408L54.5683 105.204ZM51.1276 100.842C51.5793 101.16 51.688 101.783 51.3703 102.235C51.0526 102.687 50.4288 102.796 49.977 102.478L51.1276 100.842ZM45.7777 99.0725C45.3699 98.7001 45.3411 98.0676 45.7135 97.6597C46.0859 97.2519 46.7184 97.2231 47.1263 97.5955L45.7777 99.0725ZM43.5419 93.9022C43.9 94.3226 43.8495 94.9538 43.4291 95.3119C43.0086 95.67 42.3775 95.6195 42.0194 95.1991L43.5419 93.9022ZM38.791 90.7728C38.5024 90.3019 38.6503 89.6862 39.1212 89.3977C39.5921 89.1091 40.2078 89.257 40.4963 89.7279L38.791 90.7728ZM38.2363 85.1608C38.433 85.6769 38.1741 86.2547 37.6581 86.4515C37.142 86.6482 36.5642 86.3893 36.3675 85.8733L38.2363 85.1608ZM34.9491 80.5489C34.8646 80.0031 35.2385 79.4921 35.7843 79.4076C36.3301 79.323 36.841 79.697 36.9256 80.2427L34.9491 80.5489ZM36.6989 75.1731C36.6638 75.7242 36.1885 76.1426 35.6373 76.1074C35.0861 76.0723 34.6678 75.597 34.703 75.0458L36.6989 75.1731ZM35.6192 69.6258C35.7654 69.0932 36.3157 68.7799 36.8482 68.9261C37.3808 69.0723 37.6941 69.6225 37.5479 70.1551L35.6192 69.6258ZM39.3532 65.356C39.1146 65.854 38.5173 66.0643 38.0193 65.8256C37.5212 65.587 37.3109 64.9897 37.5496 64.4917L39.3532 65.356ZM40.2732 59.7831C40.584 59.3265 41.206 59.2083 41.6626 59.5191C42.1191 59.8299 42.2373 60.4519 41.9265 60.9085L40.2732 59.7831ZM45.115 56.8264C44.7489 57.2398 44.1169 57.2781 43.7034 56.9119C43.29 56.5458 43.2517 55.9138 43.6179 55.5003L45.115 56.8264ZM47.4199 51.6584C47.8285 51.2868 48.461 51.3168 48.8325 51.7254C49.2041 52.1339 49.1741 52.7664 48.7656 53.138L47.4199 51.6584ZM52.7935 49.8131C52.3519 50.1448 51.725 50.0557 51.3933 49.6142C51.0616 49.1726 51.1506 48.5457 51.5922 48.214L52.7935 49.8131ZM56.0201 45.1694C56.4875 44.8751 57.1049 45.0154 57.3992 45.4828C57.6934 45.9501 57.5531 46.5676 57.0858 46.8619L56.0201 45.1694ZM61.6138 44.2438C61.1259 44.5026 60.5206 44.3169 60.2618 43.829C60.0029 43.3411 60.1886 42.7358 60.6765 42.477L61.6138 44.2438ZM65.5135 40.121C66.0178 39.8959 66.6091 40.1223 66.8342 40.6267C67.0592 41.131 66.8328 41.7223 66.3285 41.9474L65.5135 40.121ZM71.1836 39.964C70.666 40.1568 70.0902 39.8936 69.8973 39.3761C69.7045 38.8585 69.9677 38.2827 70.4852 38.0898L71.1836 39.964ZM75.5591 36.37C76.0871 36.2081 76.6464 36.5049 76.8083 37.0329C76.9702 37.561 76.6734 38.1202 76.1454 38.2821L75.5591 36.37ZM81.202 36.8873C80.6657 37.0192 80.124 36.6914 79.992 36.1551C79.8601 35.6189 80.1879 35.0771 80.7241 34.9452L81.202 36.8873ZM85.9594 33.8067C86.502 33.7038 87.0253 34.0603 87.1281 34.6029C87.231 35.1455 86.8745 35.6688 86.3319 35.7717L85.9594 33.8067ZM91.5163 34.9287C90.9691 35.0032 90.4651 34.62 90.3906 34.0727C90.3161 33.5255 90.6993 33.0215 91.2465 32.9469L91.5163 34.9287ZM96.5696 32.3593C97.1199 32.3125 97.6039 32.7207 97.6507 33.271C97.6975 33.8213 97.2893 34.3053 96.739 34.3521L96.5696 32.3593ZM101.985 34.0364C101.433 34.0561 100.97 33.6246 100.95 33.0726C100.931 32.5207 101.362 32.0573 101.914 32.0377L101.985 34.0364ZM107.266 31.9766C107.819 31.9835 108.261 32.4368 108.254 32.9891C108.247 33.5413 107.794 33.9834 107.241 33.9764L107.266 31.9766ZM112.495 34.1671C111.944 34.1341 111.524 33.6604 111.557 33.1091C111.59 32.5578 112.063 32.1377 112.615 32.1707L112.495 34.1671ZM47.1815 148.925C46.7801 148.088 46.3878 147.257 46.0046 146.432L47.8186 145.59C48.1982 146.407 48.5869 147.23 48.9847 148.059L47.1815 148.925ZM43.8134 141.548C43.0776 139.847 42.3815 138.172 41.7239 136.523L43.5817 135.782C44.232 137.413 44.9207 139.071 45.6489 140.753L43.8134 141.548ZM39.8092 131.493C39.1857 129.772 38.6054 128.081 38.0671 126.418L39.9699 125.802C40.5009 127.442 41.0736 129.112 41.6895 130.811L39.8092 131.493ZM36.4892 121.207C35.9874 119.423 35.5359 117.675 35.1326 115.963L37.0794 115.504C37.4759 117.188 37.9202 118.908 38.4144 120.665L36.4892 121.207ZM34.0181 110.675C33.6802 108.852 33.3996 107.072 33.1737 105.336L35.157 105.078C35.3781 106.778 35.653 108.522 35.9846 110.31L34.0181 110.675ZM32.6359 99.9463C32.5083 98.0812 32.4476 96.2711 32.4499 94.5158L34.4499 94.5184C34.4476 96.2258 34.5067 97.9895 34.6312 99.8098L32.6359 99.9463ZM32.6695 89.0682C32.8221 87.1891 33.0524 85.3814 33.3547 83.6448L35.3251 83.9878C35.0335 85.6624 34.8108 87.4096 34.6629 89.2301L32.6695 89.0682ZM34.5678 78.3071C35.0837 76.4917 35.6863 74.7691 36.3669 73.139L38.2125 73.9095C37.5632 75.4646 36.9866 77.1123 36.4917 78.8538L34.5678 78.3071ZM38.8109 68.2202C39.7675 66.5846 40.8134 65.0696 41.9356 63.6744L43.494 64.9279C42.4348 66.2449 41.4448 67.6783 40.5373 69.2299L38.8109 68.2202ZM45.7213 59.6622C47.1194 58.4015 48.5922 57.2865 50.1216 56.3157L51.1934 58.0042C49.7587 58.915 48.3753 59.962 47.0606 61.1476L45.7213 59.6622ZM55.0344 53.7623C56.7597 53.0481 58.5266 52.4946 60.3135 52.0998L60.7449 54.0528C59.0714 54.4225 57.4161 54.9409 55.7995 55.6102L55.0344 53.7623ZM65.8034 51.3858C67.6583 51.3096 69.511 51.3987 71.3379 51.6511L71.0643 53.6323C69.3556 53.3963 67.622 53.3127 65.8855 53.3841L65.8034 51.3858ZM76.7371 52.9018C78.4889 53.4797 80.1913 54.2186 81.8203 55.1165L80.8549 56.8681C79.3355 56.0306 77.7467 55.3409 76.1106 54.8012L76.7371 52.9018ZM86.408 58.2385C87.1174 58.8257 87.8037 59.4498 88.4643 60.1103L87.05 61.5246C86.4339 60.9084 85.7939 60.3265 85.1326 59.779L86.408 58.2385ZM88.4643 60.1103C89.1349 60.781 89.7595 61.4781 90.3387 62.1985L88.7799 63.4516C88.246 62.7875 87.6696 62.1442 87.05 61.5246L88.4643 60.1103ZM93.3485 66.9287C94.1795 68.6229 94.8123 70.3891 95.254 72.1971L93.3112 72.6718C92.9027 71 92.3185 69.3703 91.5529 67.8095L93.3485 66.9287ZM96.0139 77.7369C96.0792 79.5915 95.9621 81.4578 95.6699 83.3065L93.6944 82.9943C93.9671 81.269 94.0758 79.5308 94.0151 77.8073L96.0139 77.7369ZM94.298 88.7071C93.6833 90.4464 92.9089 92.1431 91.9809 93.7703L90.2436 92.7795C91.1125 91.2559 91.8372 89.6679 92.4123 88.0407L94.298 88.7071ZM88.8041 98.3427C88.2115 99.0517 87.5843 99.7383 86.9231 100.399L85.5089 98.9853C86.1277 98.3664 86.7148 97.7238 87.2695 97.0601L88.8041 98.3427ZM86.9231 100.399C86.2841 101.038 85.6186 101.641 84.929 102.207L83.6603 100.661C84.2992 100.137 84.9162 99.578 85.5089 98.9853L86.9231 100.399ZM80.4517 105.189C78.862 106.031 77.1941 106.711 75.4704 107.219L74.9043 105.301C76.5002 104.83 78.0439 104.201 79.515 103.422L80.4517 105.189ZM70.188 108.223C68.422 108.381 66.6246 108.371 64.8163 108.185L65.0208 106.195C66.7027 106.368 68.3718 106.378 70.0096 106.231L70.188 108.223ZM59.5543 107.147C57.8786 106.656 56.2112 106.01 54.5683 105.204L55.4493 103.408C56.9912 104.165 58.5522 104.769 60.117 105.228L59.5543 107.147ZM49.977 102.478C49.2599 101.974 48.551 101.436 47.8518 100.864L49.1181 99.3156C49.7802 99.8573 50.4505 100.366 51.1276 100.842L49.977 102.478ZM47.8518 100.864C47.1293 100.273 46.4381 99.6754 45.7777 99.0725L47.1263 97.5955C47.7591 98.1733 48.4228 98.7468 49.1181 99.3156L47.8518 100.864ZM42.0194 95.1991C40.7831 93.7476 39.7085 92.2702 38.791 90.7728L40.4963 89.7279C41.3565 91.1317 42.3691 92.5253 43.5419 93.9022L42.0194 95.1991ZM36.3675 85.8733C35.6952 84.1099 35.2253 82.3316 34.9491 80.5489L36.9256 80.2427C37.1798 81.8843 37.6132 83.5264 38.2363 85.1608L36.3675 85.8733ZM34.703 75.0458C34.8191 73.2238 35.1286 71.4135 35.6192 69.6258L37.5479 70.1551C37.0918 71.8171 36.806 73.4928 36.6989 75.1731L34.703 75.0458ZM37.5496 64.4917C38.3167 62.891 39.2278 61.3188 40.2732 59.7831L41.9265 60.9085C40.9341 62.3663 40.0742 63.8515 39.3532 65.356L37.5496 64.4917ZM43.6179 55.5003C44.7848 54.1829 46.0543 52.9003 47.4199 51.6584L48.7656 53.138C47.4504 54.334 46.2318 55.5655 45.115 56.8264L43.6179 55.5003ZM51.5922 48.214C52.995 47.1602 54.4726 46.1439 56.0201 45.1694L57.0858 46.8619C55.5831 47.8081 54.1509 48.7933 52.7935 49.8131L51.5922 48.214ZM60.6765 42.477C62.2334 41.6511 63.8469 40.8647 65.5135 40.121L66.3285 41.9474C64.7024 42.673 63.1297 43.4397 61.6138 44.2438L60.6765 42.477ZM70.4852 38.0898C72.1342 37.4754 73.8265 36.9012 75.5591 36.37L76.1454 38.2821C74.45 38.8019 72.7951 39.3635 71.1836 39.964L70.4852 38.0898ZM80.7241 34.9452C82.4364 34.5239 84.1823 34.1436 85.9594 33.8067L86.3319 35.7717C84.5899 36.1019 82.8791 36.4746 81.202 36.8873L80.7241 34.9452ZM91.2465 32.9469C92.9954 32.7088 94.7705 32.5122 96.5696 32.3593L96.739 34.3521C94.9734 34.5022 93.2318 34.6951 91.5163 34.9287L91.2465 32.9469ZM101.914 32.0377C103.679 31.9749 105.463 31.9539 107.266 31.9766L107.241 33.9764C105.47 33.9541 103.718 33.9747 101.985 34.0364L101.914 32.0377ZM112.615 32.1707C113.505 32.224 114.4 32.2881 115.298 32.363L115.132 34.3561C114.249 34.2825 113.37 34.2195 112.495 34.1671L112.615 32.1707Z" fill="#DDAD96"/>
</svg>
