<svg width="54" height="54" viewBox="0 0 54 54" fill="none" xmlns="http://www.w3.org/2000/svg">
<path d="M26.9003 34.2472C26.7458 34.3407 26.5708 34.3973 26.3898 34.4064L20.5583 34.7015C18.9031 34.7845 17.4793 34.6152 16.204 34.1861C13.4134 33.2484 11.0716 31.2942 9.61165 28.6806L4.80323 20.0801C4.24809 19.0876 4.37254 17.82 5.1095 16.9251L11.712 8.93138C12.1016 8.45238 12.6469 8.11904 13.2429 7.99318L23.125 5.87658C24.2303 5.63811 25.3466 6.1465 25.8998 7.13848L30.7117 15.7453C32.1708 18.3543 32.6531 21.4473 32.071 24.4545C31.8038 25.8341 31.2469 27.2171 30.3703 28.6829L27.2811 33.8586C27.1858 34.02 27.0542 34.1524 26.9003 34.2472" fill="url(#paint0_linear_908_95)"/>
<mask id="path-2-outside-1_908_95" maskUnits="userSpaceOnUse" x="12.5552" y="5.76567" width="40.7825" height="47.8949" fill="black">
<rect fill="white" x="12.5552" y="5.76567" width="40.7825" height="47.8949"/>
<path d="M29.4113 48.3558C29.1864 48.304 28.9716 48.1985 28.7892 48.0425L22.9135 43.0142C21.2464 41.5863 20.0066 40.1292 19.1202 38.56C17.1796 35.1277 16.4936 31.1373 17.1925 27.3225L19.4881 14.7657C19.7528 13.3164 20.8966 12.2241 22.3316 12.0439L35.1686 10.4524C35.9321 10.3515 36.7284 10.531 37.4061 10.9538L48.6684 17.9373C49.9295 18.7167 50.5981 20.2165 50.3319 21.6635L48.0345 34.2296C47.3385 38.0392 45.3075 41.4198 42.3167 43.7499C40.9445 44.8186 39.2895 45.6269 37.2585 46.223L30.0932 48.3329C29.8706 48.3996 29.6366 48.4057 29.4113 48.3558"/>
</mask>
<path d="M29.4113 48.3558C29.1864 48.304 28.9716 48.1985 28.7892 48.0425L22.9135 43.0142C21.2464 41.5863 20.0066 40.1292 19.1202 38.56C17.1796 35.1277 16.4936 31.1373 17.1925 27.3225L19.4881 14.7657C19.7528 13.3164 20.8966 12.2241 22.3316 12.0439L35.1686 10.4524C35.9321 10.3515 36.7284 10.531 37.4061 10.9538L48.6684 17.9373C49.9295 18.7167 50.5981 20.2165 50.3319 21.6635L48.0345 34.2296C47.3385 38.0392 45.3075 41.4198 42.3167 43.7499C40.9445 44.8186 39.2895 45.6269 37.2585 46.223L30.0932 48.3329C29.8706 48.3996 29.6366 48.4057 29.4113 48.3558" fill="#E3C8B7"/>
<path d="M29.2255 49.3378C29.7642 49.4618 30.2841 49.1227 30.3868 48.5803C30.4894 48.038 30.1358 47.4978 29.5971 47.3738L29.2255 49.3378ZM28.7892 48.0425L29.4132 47.2825L29.4131 47.2824L28.7892 48.0425ZM22.9135 43.0142L22.2892 43.774L22.2896 43.7742L22.9135 43.0142ZM19.1202 38.56L19.9773 38.0835L19.9771 38.0831L19.1202 38.56ZM17.1925 27.3225L18.1689 27.5413L18.169 27.5409L17.1925 27.3225ZM19.4881 14.7657L20.4647 14.9841L20.4647 14.9839L19.4881 14.7657ZM22.3316 12.0439L22.1759 11.0439L22.1744 11.0441L22.3316 12.0439ZM35.1686 10.4524L35.3244 11.4523L35.332 11.4513L35.1686 10.4524ZM37.4061 10.9538L36.9086 11.8066L36.9111 11.8081L37.4061 10.9538ZM48.6684 17.9373L48.1733 18.7916L48.1746 18.7923L48.6684 17.9373ZM50.3319 21.6635L49.3556 21.444L49.3554 21.445L50.3319 21.6635ZM48.0345 34.2296L47.058 34.0111L47.0579 34.0113L48.0345 34.2296ZM42.3167 43.7499L42.9392 44.5572L42.9394 44.5571L42.3167 43.7499ZM37.2585 46.223L36.9507 45.2545L36.9499 45.2548L37.2585 46.223ZM30.0932 48.3329L29.7846 47.3647L29.7801 47.366L30.0932 48.3329ZM29.5891 47.372C29.0496 47.2525 28.5326 47.596 28.4344 48.1393C28.3362 48.6827 28.694 49.2201 29.2335 49.3396L29.5891 47.372ZM29.5971 47.3738C29.5259 47.3574 29.4631 47.3252 29.4132 47.2825L28.1653 48.8025C28.4801 49.0719 28.8469 49.2507 29.2255 49.3378L29.5971 47.3738ZM29.4131 47.2824L23.5373 42.2541L22.2896 43.7742L28.1654 48.8025L29.4131 47.2824ZM23.5377 42.2544C21.9444 40.8898 20.7916 39.5249 19.9773 38.0835L18.2631 39.0365C19.2217 40.7334 20.5484 42.2829 22.2892 43.774L23.5377 42.2544ZM19.9771 38.0831C18.157 34.8641 17.5132 31.1206 18.1689 27.5413L16.216 27.1037C15.4739 31.154 16.2021 35.3914 18.2633 39.0368L19.9771 38.0831ZM18.169 27.5409L20.4647 14.9841L18.5116 14.5472L16.2159 27.1041L18.169 27.5409ZM20.4647 14.9839C20.6538 13.9488 21.4711 13.1715 22.4889 13.0437L22.1744 11.0441C20.3221 11.2767 18.8519 12.6839 18.5115 14.5474L20.4647 14.9839ZM22.4874 13.0439L35.3244 11.4523L35.0129 9.45238L22.1759 11.0439L22.4874 13.0439ZM35.332 11.4513C35.8637 11.3811 36.4269 11.506 36.9086 11.8066L37.9036 10.101C37.0299 9.55592 36.0004 9.32195 35.0053 9.45336L35.332 11.4513ZM36.9111 11.8081L48.1733 18.7916L49.1634 17.083L37.9011 10.0995L36.9111 11.8081ZM48.1746 18.7923C49.0664 19.3435 49.5457 20.4106 49.3556 21.444L51.3083 21.883C51.6505 20.0223 50.7925 18.0899 49.1621 17.0822L48.1746 18.7923ZM49.3554 21.445L47.058 34.0111L49.0111 34.448L51.3085 21.8819L49.3554 21.445ZM47.0579 34.0113C46.4049 37.5857 44.4993 40.7571 41.694 42.9427L42.9394 44.5571C46.1157 42.0824 48.2721 38.4928 49.0111 34.4479L47.0579 34.0113ZM41.6941 42.9426C40.4335 43.9244 38.8913 44.6849 36.9507 45.2545L37.5663 47.1915C39.6876 46.5689 41.4555 45.7128 42.9392 44.5572L41.6941 42.9426ZM36.9499 45.2548L29.7846 47.3647L30.4018 49.3012L37.5671 47.1912L36.9499 45.2548ZM29.7801 47.366C29.7192 47.3843 29.6542 47.3864 29.5891 47.372L29.2335 49.3396C29.6191 49.425 30.0221 49.415 30.4063 49.2998L29.7801 47.366Z" fill="url(#paint1_linear_908_95)" mask="url(#path-2-outside-1_908_95)"/>
<path d="M30.7345 33.3614C30.3772 33.2849 30.0452 33.078 29.8214 32.753L26.9417 28.5695C26.4976 27.9204 26.6584 27.0601 27.3024 26.6458C27.9468 26.2297 28.8308 26.4179 29.2771 27.0656L31.3494 30.0745L38.7551 25.3007C39.4014 24.8851 40.2854 25.0732 40.7298 25.7205C41.1757 26.37 41.0147 27.2322 40.371 27.6446L31.796 33.1728C31.4727 33.3815 31.0917 33.4378 30.7345 33.3614Z" fill="url(#paint2_linear_908_95)"/>
<path d="M27.3574 26.7308L27.3575 26.7307C27.9569 26.3437 28.7805 26.5189 29.1958 27.1215C29.1958 27.1216 29.1958 27.1216 29.1958 27.1216L31.268 30.1304L31.3238 30.2114L31.4044 30.1594L38.8101 25.3858C39.4116 24.9989 40.2351 25.1745 40.6484 25.7764C41.0622 26.3792 40.9126 27.1774 40.3162 27.5595L40.3159 27.5596L31.741 33.0878L31.741 33.0879C31.4405 33.2818 31.0862 33.3344 30.753 33.2632C30.4194 33.1918 30.1107 32.9989 29.9027 32.6971C29.9027 32.6971 29.9027 32.697 29.9027 32.697L27.0232 28.5138C27.0232 28.5137 27.0232 28.5137 27.0231 28.5136C26.6112 27.9113 26.7604 27.1148 27.3574 26.7308Z" stroke="url(#paint3_linear_908_95)" stroke-opacity="0.5" stroke-width="0.2"/>
<defs>
<linearGradient id="paint0_linear_908_95" x1="23.0701" y1="1.87378" x2="14.8958" y2="30.9703" gradientUnits="userSpaceOnUse">
<stop stop-color="#E3C8B7"/>
<stop offset="1" stop-color="#DDAD96"/>
</linearGradient>
<linearGradient id="paint1_linear_908_95" x1="25.0459" y1="12.5067" x2="44.7155" y2="43.3123" gradientUnits="userSpaceOnUse">
<stop stop-color="white" stop-opacity="0.25"/>
<stop offset="1" stop-color="white" stop-opacity="0"/>
</linearGradient>
<linearGradient id="paint2_linear_908_95" x1="39.9183" y1="26.9833" x2="24.6789" y2="24.7397" gradientUnits="userSpaceOnUse">
<stop stop-color="white"/>
<stop offset="1" stop-color="white" stop-opacity="0.2"/>
</linearGradient>
<linearGradient id="paint3_linear_908_95" x1="28.5137" y1="26.0687" x2="40.0392" y2="28.391" gradientUnits="userSpaceOnUse">
<stop stop-color="white"/>
<stop offset="1" stop-color="white" stop-opacity="0"/>
</linearGradient>
</defs>
</svg>
