<?xml version="1.0" encoding="utf-8"?><svg viewBox="0 0 149 150" xmlns="http://www.w3.org/2000/svg" xmlns:xlink="http://www.w3.org/1999/xlink"><style>:root>svg{display:none}:root>svg:target{display:block}</style><svg fill="none" viewBox="0 0 22 12" id="ar_right" xmlns="http://www.w3.org/2000/svg"><path d="M15.293 10.293a1 1 0 001.414 1.414l5-5a1 1 0 000-1.414l-5-5a1 1 0 10-1.414 1.414L18.586 5H1a1 1 0 000 2h17.586l-3.293 3.293z" fill="#fff"/></svg><svg fill="none" viewBox="0 0 22 12" id="ar_right_about" xmlns="http://www.w3.org/2000/svg"><path d="M15.293 10.293a1 1 0 001.414 1.414l5-5a1 1 0 000-1.414l-5-5a1 1 0 10-1.414 1.414L18.586 5H1a1 1 0 000 2h17.586l-3.293 3.293z" fill="#fff"/></svg><svg fill="none" viewBox="0 0 16 9" id="arrow-bottom" xmlns="http://www.w3.org/2000/svg"><path fill-rule="evenodd" clip-rule="evenodd" d="M.744.91a.833.833 0 011.179 0L8 6.989 14.077.911a.833.833 0 111.179 1.178L8.589 8.756a.833.833 0 01-1.178 0L.744 2.089a.833.833 0 010-1.178z" fill="#121127"/></svg><svg fill="none" viewBox="0 0 22 12" id="arrow-left" xmlns="http://www.w3.org/2000/svg"><path fill-rule="evenodd" clip-rule="evenodd" d="M6.707.293a1 1 0 010 1.414L3.414 5H21a1 1 0 110 2H3.414l3.293 3.293a1 1 0 11-1.414 1.414l-5-5a1 1 0 010-1.414l5-5a1 1 0 011.414 0z" fill="#121127"/></svg><svg fill="none" viewBox="0 0 22 12" id="arrow-right" xmlns="http://www.w3.org/2000/svg"><path d="M15.293 10.293a1 1 0 001.414 1.414l5-5a1 1 0 000-1.414l-5-5a1 1 0 10-1.414 1.414L18.586 5H1a1 1 0 000 2h17.586l-3.293 3.293z" fill="#121127"/></svg><svg fill="none" viewBox="0 0 16 9" id="arrow-top" xmlns="http://www.w3.org/2000/svg"><path fill-rule="evenodd" clip-rule="evenodd" d="M7.41.244a.833.833 0 011.18 0l6.666 6.667a.833.833 0 11-1.179 1.178L8 2.012 1.923 8.089A.833.833 0 01.744 6.911L7.411.244z" fill="#121127"/></svg><svg fill="none" viewBox="0 0 20 14" id="burger" xmlns="http://www.w3.org/2000/svg"><path d="M0 1a1 1 0 011-1h18a1 1 0 110 2H1a1 1 0 01-1-1zm0 6a1 1 0 011-1h18a1 1 0 110 2H1a1 1 0 01-1-1zm1 5a1 1 0 100 2h18a1 1 0 100-2H1z" fill="#121127"/></svg><svg fill="none" viewBox="0 0 14 14" id="close" xmlns="http://www.w3.org/2000/svg"><path d="M1 1l12 12m0-12L1 13 13 1z" stroke="#121127" stroke-width="2" stroke-linecap="round" stroke-linejoin="round"/></svg><svg fill="none" viewBox="0 0 32 32" id="facebook" xmlns="http://www.w3.org/2000/svg"><path fill-rule="evenodd" clip-rule="evenodd" d="M0 16C0 7.163 7.163 0 16 0s16 7.163 16 16-7.163 16-16 16S0 24.837 0 16zm17.668 9.408v-8.705h2.403l.318-3h-2.721l.004-1.501c0-.783.074-1.202 1.198-1.202h1.502V8h-2.403c-2.887 0-3.903 1.455-3.903 3.902v1.801h-1.8v3h1.8v8.705h3.602z" fill="#4E4E4E"/></svg><svg fill="none" viewBox="0 0 32 32" id="instagram" xmlns="http://www.w3.org/2000/svg"><path fill-rule="evenodd" clip-rule="evenodd" d="M0 16C0 7.163 7.163 0 16 0s16 7.163 16 16-7.163 16-16 16S0 24.837 0 16zm16-8.533c-2.317 0-2.608.01-3.518.051-.908.042-1.528.186-2.07.397a4.178 4.178 0 00-1.513.984c-.474.474-.766.95-.985 1.511-.211.543-.355 1.163-.396 2.071-.04.91-.051 1.202-.051 3.52 0 2.317.01 2.607.051 3.517.042.908.186 1.528.397 2.07a4.19 4.19 0 00.984 1.513c.474.474.95.767 1.511.985.543.21 1.163.354 2.072.396.91.041 1.2.052 3.518.052 2.317 0 2.607-.01 3.518-.052.908-.042 1.529-.185 2.072-.396a4.175 4.175 0 001.51-.985c.475-.475.767-.95.985-1.512.21-.543.354-1.163.397-2.071.04-.91.051-1.2.051-3.518 0-2.317-.01-2.608-.051-3.518-.043-.909-.187-1.53-.397-2.072A4.187 4.187 0 0023.1 8.9a4.17 4.17 0 00-1.51-.984c-.545-.211-1.165-.355-2.074-.397-.91-.041-1.2-.051-3.518-.051h.003z" fill="#4E4E4E"/><path fill-rule="evenodd" clip-rule="evenodd" d="M15.235 9.004h.766c2.278 0 2.548.009 3.448.05.832.038 1.284.177 1.584.293.399.155.682.34.981.639.299.298.484.583.639.981.116.3.256.752.294 1.584.04.9.05 1.17.05 3.447 0 2.278-.01 2.548-.05 3.447-.039.832-.178 1.284-.294 1.584-.155.398-.34.682-.639.98a2.64 2.64 0 01-.98.639c-.301.117-.753.256-1.585.294-.9.04-1.17.05-3.448.05-2.279 0-2.549-.01-3.448-.05-.832-.039-1.284-.178-1.585-.294a2.642 2.642 0 01-.981-.639 2.645 2.645 0 01-.639-.98c-.117-.3-.256-.752-.294-1.584-.04-.9-.049-1.17-.049-3.449s.008-2.548.05-3.447c.037-.832.176-1.284.293-1.585.155-.398.34-.682.639-.98.298-.3.583-.484.981-.64.3-.117.753-.255 1.585-.294.787-.035 1.092-.046 2.682-.048v.002zm5.32 1.417a1.024 1.024 0 100 2.048 1.024 1.024 0 000-2.048zm-4.554 1.197a4.383 4.383 0 100 8.765 4.383 4.383 0 000-8.765z" fill="#4E4E4E"/><path fill-rule="evenodd" clip-rule="evenodd" d="M16 13.156a2.845 2.845 0 110 5.689 2.845 2.845 0 010-5.69z" fill="#4E4E4E"/></svg><svg fill="none" viewBox="0 0 22 12" id="line" xmlns="http://www.w3.org/2000/svg"><path fill-rule="evenodd" clip-rule="evenodd" d="M6.707.293a1 1 0 010 1.414L3.414 5H21a1 1 0 110 2H3.414l3.293 3.293a1 1 0 11-1.414 1.414l-5-5a1 1 0 010-1.414l5-5a1 1 0 011.414 0z" fill="#fff"/></svg><svg fill="none" viewBox="0 0 78 39" id="logo" xmlns="http://www.w3.org/2000/svg"><path d="M10.738.739v13.379H9.424V7.706H1.806v6.412H.492V.738h1.314V7.15h7.618V.74h1.314zM35.047 9.03c0 2.66-2.197 4.819-4.897 4.819a4.843 4.843 0 01-2.06-.45c-.106-.045-.205-.098-.312-.15a1.079 1.079 0 01-.205-.135 1.265 1.265 0 01-.267-.173 4.796 4.796 0 01-.806-.705V18.3h-1.33V4.134h1.33v1.68a4.897 4.897 0 013.65-1.612c.883 0 1.71.233 2.426.637.007 0 .016 0 .023.008a.14.14 0 01.053.045 4.778 4.778 0 012.395 4.138zm-2.69-3.599a.409.409 0 01-.07-.052c-.023-.007-.038-.022-.068-.03l-.245-.12a2.652 2.652 0 00-1.025-.194 3.39 3.39 0 00-1.27.253c-.966.382-1.81 1.124-2.38 2.114-1.17 1.978-.867 4.293.646 5.223l.068.045c.107.06.205.105.32.15.676.278 1.482.264 2.288-.06.959-.367 1.803-1.123 2.38-2.105 1.165-1.986.868-4.301-.645-5.224zm14.86 3.599c0 2.66-2.197 4.819-4.897 4.819a4.843 4.843 0 01-2.06-.45c-.107-.045-.206-.098-.312-.15a1.079 1.079 0 01-.206-.135 1.265 1.265 0 01-.266-.173 4.792 4.792 0 01-.806-.705V18.3h-1.33V4.134h1.33v1.68a4.897 4.897 0 013.65-1.612c.882 0 1.71.233 2.426.637.007 0 .015 0 .022.008a.14.14 0 01.053.045 4.778 4.778 0 012.396 4.138zm-2.691-3.599c-.023-.015-.046-.03-.069-.052-.023-.007-.038-.022-.069-.03l-.244-.12a2.652 2.652 0 00-1.026-.194c-.417 0-.844.082-1.27.253-.965.382-1.81 1.124-2.38 2.114-1.17 1.978-.866 4.293.647 5.223l.068.045c.107.06.205.105.32.15.676.278 1.482.264 2.288-.06.958-.367 1.803-1.123 2.38-2.105 1.164-1.986.868-4.301-.645-5.224zm12.932-.988l-5.465 14.15h-.798l1.5-3.959-4.354-10.19h1.588l3.404 8.498 3.166-8.499h.96zM18.414 20.607l-4.61 13.357H12.19L9.453 22.482 6.678 33.964H5.102L.492 20.607h1.98l3.473 12.918 2.9-12.918h1.318l2.992 12.918 3.381-12.918h1.878zm8.097 9.536h1.58c-.427 2.177-2.378 3.822-4.715 3.822a4.762 4.762 0 01-2.016-.445c-.097-.04-.193-.096-.298-.143-.064-.04-.137-.08-.202-.127-.096-.048-.177-.112-.265-.175a4.671 4.671 0 01-2.008-3.83c0-2.614 2.152-4.726 4.789-4.726.87 0 1.684.23 2.377.627.009 0 .017 0 .025.008.016.008.04.024.056.04a4.723 4.723 0 012.29 3.36h-7.957c-.596 1.693-.193 3.44 1.056 4.21a.34.34 0 00.073.04c.096.064.193.112.306.16.669.27 1.46.254 2.241-.064.935-.365 1.765-1.104 2.337-2.066.13-.222.242-.46.331-.691zm-6.126-2.105h6.457c-.081-.985-.524-1.835-1.298-2.32a.31.31 0 01-.073-.04c-.024-.008-.04-.024-.064-.031l-.242-.12a2.517 2.517 0 00-1.008-.19 3.4 3.4 0 00-1.241.246c-.943.373-1.765 1.104-2.33 2.074a4.265 4.265 0 00-.201.38zm19.16-7.446v13.373h-1.272V32.31a4.807 4.807 0 01-3.568 1.571c-.72 0-1.395-.153-2.01-.438a5.353 5.353 0 01-.297-.147 1.352 1.352 0 01-.208-.131 1.772 1.772 0 01-.26-.169 4.664 4.664 0 01-2.002-3.816c0-2.602 2.15-4.708 4.777-4.708a4.76 4.76 0 012.366.622c.007 0 .023 0 .03.008a.133.133 0 01.051.043c.416.249.794.549 1.12.907v-5.46h1.273zm-2.681 5.08c-.023-.014-.052-.029-.075-.05-.022-.008-.037-.023-.06-.03l-.244-.117a2.549 2.549 0 00-1.002-.19c-.4 0-.816.08-1.238.249-.935.373-1.766 1.096-2.321 2.06-1.135 1.931-.839 4.19.637 5.096l.067.044c.096.059.2.103.304.146.668.271 1.454.257 2.24-.058.935-.358 1.758-1.097 2.322-2.054 1.134-1.937.837-4.197-.63-5.096zm14.574-5.08v13.373h-1.272V32.31a4.807 4.807 0 01-3.568 1.571c-.72 0-1.395-.153-2.01-.438a5.353 5.353 0 01-.297-.147 1.352 1.352 0 01-.208-.131 1.767 1.767 0 01-.26-.169 4.664 4.664 0 01-2.002-3.816c0-2.602 2.151-4.708 4.777-4.708.868 0 1.676.228 2.366.622.007 0 .023 0 .03.008a.132.132 0 01.051.043c.416.249.794.549 1.12.907v-5.46h1.273zm-2.681 5.08c-.023-.014-.052-.029-.074-.05-.023-.008-.037-.023-.06-.03l-.245-.117a2.549 2.549 0 00-1.001-.19c-.4 0-.817.08-1.24.249-.934.373-1.765 1.096-2.32 2.06-1.135 1.931-.838 4.19.638 5.096l.067.044c.096.059.2.103.303.146.668.271 1.455.257 2.24-.058.935-.358 1.759-1.097 2.322-2.054 1.134-1.937.838-4.197-.63-5.096zm5.234-3.954c0-.457.376-.828.84-.828.464 0 .84.37.84.828a.834.834 0 01-.84.828.834.834 0 01-.84-.828zm.18 12.247v-9.691h1.32v9.69h-1.32zm4.067 0V24.28h1.322v1.637s1.2-1.446 3.176-1.446c1.976 0 4.327 1.89 4.327 4.265 0 2.374.075 5.229.075 5.229H65.88v-4.46c0-2.306-1.142-4.383-3.192-4.383-2.05 0-3.154 1.855-3.154 4.538v4.305h-1.296zm19.268 1.479c.094 2.225-3.745 3.52-6.073 2.636-.165-.047-.307-.086-.456-.171a1.206 1.206 0 01-.228-.1c-2.989-1.466-2.014-4.513 1.345-4.877-2.816-.293-3.58-2.213-2.116-2.848-2.062-3.333 1.903-7.28 5.309-5.302.031 0 .055.038.086.054.008-.008.015-.008.023-.016.488-.317 1.078-.503 1.69-.558.08.28.15.558.206.845.007 0 .007.008.007.016-.432.007-.872.062-1.258.21 1.426 1.257 1.654 3.681.402 5.154-1.007 1.372-3.163 1.93-4.743 1.14-.087-.031-.165-.078-.244-.117-.056-.03-.118-.061-.173-.108a1.076 1.076 0 01-.212-.14 3.69 3.69 0 01-.913-.899c-.204.085-.433.24-.44.527-.016 1.45 3.115 1.485 4.208 1.687.676.124 1.046.217 1.219.286h.008c.063.016.126.04.189.063h.023c.016.006.031.014.047.022 1.25.505 2.092 1.435 2.094 2.496zm-2.354-2.169a2.844 2.844 0 00-.99-.225c-.142 0-.237-.008-.237-.008-.362 0-.732.046-1.109.155-2.14.419-3.98 3.303-1.51 4.42.024.007.04.014.063.03l.276.093c1.344.395 3.201-.24 4.074-1.31 1.007-1.194.747-2.597-.567-3.155zm-3.57-2.268c.023.015.04.03.063.038.079.047.157.086.243.124 1.29.52 2.809-.318 3.571-1.465.157-.224.3-.473.402-.72.495-1.133.44-2.334-.126-3.132a1.973 1.973 0 00-.574-.566c-.021-.011-.044-.029-.068-.045.008.003.011.008.02.014-.024-.015-.047-.03-.078-.046-.016-.008-.016-.016-.032-.016l-.197-.101c-3.17-1.147-5.898 4.27-3.224 5.915zM23.663 5.495c.012-.339.024-.681.033-1.02l-2.01-1.643c-.339.075-.677.147-1.012.222.125.814.247 1.63.375 2.444 0 .015.003.027.006.042a4.715 4.715 0 00-.555-.378.31.31 0 00-.055-.039c-.009-.006-.015-.006-.024-.006a4.863 4.863 0 00-2.425-.64c-2.69 0-4.89 2.16-4.89 4.82 0 1.609.808 3.044 2.05 3.906.09.069.174.132.269.177.07.054.14.093.21.132.1.054.204.108.305.147a4.925 4.925 0 005.536-.976v1.604h1.37V9.963c.034-.22.049-.441.049-.667a4.77 4.77 0 00-1.78-3.708h.04c.838-.03 1.673-.063 2.508-.093zm-2.812 5.429c-.58.976-1.423 1.732-2.377 2.102-.807.324-1.611.339-2.294.063a2.473 2.473 0 01-.31-.154c-.025-.014-.046-.033-.07-.048-1.511-.924-1.816-3.236-.65-5.209.57-.988 1.414-1.735 2.377-2.114a3.483 3.483 0 011.267-.255c.36 0 .704.063 1.027.195l.25.123a.703.703 0 01.13.075c1.512.925 1.807 3.24.65 5.222z" fill="#121127"/><path d="M17.274 12.125c-.244.471-.77.685-1.179.48-.408-.207-.54-.756-.295-1.225.246-.471.773-.687 1.181-.48.409.204.54.754.293 1.225zM16.14 9.97c-.136.51-.563.843-.95.74-.39-.098-.594-.597-.457-1.107.134-.514.56-.847.95-.745.39.102.595.598.458 1.111zm3.398 1.756c-.381.375-.972.4-1.323.054-.347-.345-.322-.928.055-1.3.381-.376.972-.4 1.323-.054.347.345.323.927-.055 1.3zM17.1 7.951c-.344.409-.874.535-1.182.282-.31-.255-.283-.79.058-1.198.345-.408.872-.531 1.182-.279.311.252.284.79-.058 1.195zm2.493-.435c-.299.438-.85.592-1.231.342-.378-.252-.445-.813-.146-1.252.298-.438.85-.591 1.23-.342.378.252.445.81.147 1.252zm1.154 1.91c-.298.438-.874.576-1.285.306-.412-.273-.503-.85-.205-1.288.302-.442.875-.577 1.286-.306.411.273.503.85.204 1.288z" fill="#121127"/></svg><svg fill="none" viewBox="0 0 78 39" id="logo-vid" xmlns="http://www.w3.org/2000/svg"><path d="M10.738.739v13.378H9.424v-6.41H1.806v6.41H.492V.74h1.314v6.41h7.618V.74h1.314zM35.047 9.03c0 2.66-2.197 4.818-4.897 4.818a4.843 4.843 0 01-2.06-.45c-.106-.045-.205-.097-.312-.15a1.074 1.074 0 01-.205-.135 1.269 1.269 0 01-.267-.172 4.796 4.796 0 01-.806-.705V18.3h-1.33V4.134h1.33v1.68a4.897 4.897 0 013.65-1.612c.883 0 1.71.233 2.426.637.007 0 .016 0 .023.008a.14.14 0 01.053.044 4.778 4.778 0 012.395 4.139zm-2.69-3.6a.401.401 0 01-.07-.051c-.023-.008-.038-.023-.068-.03l-.245-.12a2.652 2.652 0 00-1.025-.195c-.418 0-.845.082-1.27.254-.966.382-1.81 1.124-2.38 2.113-1.17 1.98-.867 4.294.646 5.224l.068.045c.107.06.205.105.32.15.676.277 1.482.263 2.288-.06.959-.367 1.803-1.123 2.38-2.105 1.165-1.986.868-4.302-.645-5.224zm14.86 3.6c0 2.66-2.197 4.818-4.897 4.818a4.843 4.843 0 01-2.06-.45c-.107-.045-.206-.097-.312-.15a1.074 1.074 0 01-.206-.135 1.269 1.269 0 01-.266-.172 4.792 4.792 0 01-.806-.705V18.3h-1.33V4.134h1.33v1.68a4.897 4.897 0 013.65-1.612c.882 0 1.71.233 2.426.637.007 0 .015 0 .022.008a.14.14 0 01.053.044 4.778 4.778 0 012.396 4.139zm-2.691-3.6a.436.436 0 01-.069-.051c-.023-.008-.038-.023-.069-.03l-.244-.12a2.652 2.652 0 00-1.026-.195 3.38 3.38 0 00-1.27.254c-.965.382-1.81 1.124-2.38 2.113-1.17 1.98-.866 4.294.647 5.224l.068.045c.107.06.205.105.32.15.676.277 1.482.263 2.288-.06.958-.367 1.803-1.123 2.38-2.105 1.164-1.986.868-4.302-.645-5.224zm12.932-.987l-5.465 14.15h-.798l1.5-3.96-4.354-10.19h1.588l3.404 8.499 3.166-8.499h.96zM18.414 20.607l-4.61 13.357H12.19L9.453 22.482 6.678 33.963H5.102L.492 20.607h1.98l3.473 12.918 2.9-12.918h1.318l2.992 12.918 3.381-12.918h1.878zm8.097 9.536h1.58c-.427 2.177-2.378 3.822-4.715 3.822a4.762 4.762 0 01-2.016-.445c-.097-.04-.193-.096-.298-.143-.064-.04-.137-.08-.202-.127-.096-.048-.177-.112-.265-.175a4.671 4.671 0 01-2.008-3.83c0-2.614 2.152-4.726 4.789-4.726.87 0 1.684.23 2.377.627.009 0 .017 0 .025.008.016.008.04.024.056.04a4.723 4.723 0 012.29 3.36h-7.957c-.596 1.693-.193 3.44 1.056 4.21a.34.34 0 00.073.04c.096.064.193.112.306.16.669.27 1.46.254 2.241-.064.935-.365 1.765-1.104 2.337-2.066.13-.222.242-.46.331-.691zm-6.126-2.105h6.457c-.081-.985-.524-1.835-1.298-2.32a.31.31 0 01-.073-.04c-.024-.008-.04-.024-.064-.031l-.242-.12a2.517 2.517 0 00-1.008-.19 3.4 3.4 0 00-1.241.246c-.943.373-1.765 1.104-2.33 2.074a4.265 4.265 0 00-.201.38zm19.16-7.446v13.372h-1.272V32.31a4.807 4.807 0 01-3.568 1.572 4.73 4.73 0 01-2.01-.439 5.353 5.353 0 01-.297-.146c-.067-.037-.134-.073-.208-.131a1.78 1.78 0 01-.26-.17 4.664 4.664 0 01-2.002-3.815c0-2.603 2.15-4.708 4.777-4.708a4.75 4.75 0 012.366.622c.007 0 .023 0 .03.007a.134.134 0 01.051.044 4.92 4.92 0 011.12.906v-5.46h1.273zm-2.681 5.08c-.023-.014-.052-.029-.075-.051-.022-.007-.037-.022-.06-.03l-.244-.116a2.549 2.549 0 00-1.002-.19c-.4 0-.816.08-1.238.249-.935.372-1.766 1.096-2.321 2.06-1.135 1.931-.839 4.19.637 5.096l.067.044c.096.059.2.102.304.146.668.271 1.454.257 2.24-.058.935-.358 1.758-1.097 2.322-2.055 1.134-1.936.837-4.196-.63-5.095zm14.574-5.08v13.372h-1.272V32.31a4.807 4.807 0 01-3.568 1.572 4.73 4.73 0 01-2.01-.439 5.353 5.353 0 01-.297-.146c-.067-.037-.134-.073-.208-.131a1.775 1.775 0 01-.26-.17 4.664 4.664 0 01-2.002-3.815c0-2.603 2.151-4.708 4.777-4.708a4.75 4.75 0 012.366.622c.007 0 .023 0 .03.007a.133.133 0 01.051.044 4.92 4.92 0 011.12.906v-5.46h1.273zm-2.681 5.08c-.023-.014-.052-.029-.074-.051-.023-.007-.037-.022-.06-.03l-.245-.116a2.549 2.549 0 00-1.001-.19c-.4 0-.817.08-1.24.249-.934.372-1.765 1.096-2.32 2.06-1.135 1.931-.838 4.19.638 5.096l.067.044c.096.059.2.102.303.146.668.271 1.455.257 2.24-.058.935-.358 1.759-1.097 2.322-2.055 1.134-1.936.838-4.196-.63-5.095zm5.234-3.954c0-.457.376-.828.84-.828.464 0 .84.37.84.828a.834.834 0 01-.84.828.834.834 0 01-.84-.828zm.18 12.246v-9.69h1.32v9.69h-1.32zm4.067 0V24.28h1.322v1.636s1.2-1.445 3.176-1.445c1.976 0 4.327 1.89 4.327 4.264 0 2.375.075 5.23.075 5.23H65.88v-4.46c0-2.306-1.142-4.383-3.192-4.383-2.05 0-3.154 1.854-3.154 4.538v4.304h-1.296zm19.268 1.48c.094 2.225-3.745 3.52-6.073 2.636-.165-.047-.307-.086-.456-.171a1.199 1.199 0 01-.228-.101c-2.989-1.465-2.014-4.512 1.345-4.876-2.816-.294-3.58-2.213-2.116-2.849-2.062-3.332 1.903-7.278 5.309-5.301.031 0 .055.038.086.054.008-.008.015-.008.023-.016a3.7 3.7 0 011.69-.558c.08.279.15.558.206.845.007 0 .007.008.007.016-.432.007-.872.062-1.258.209 1.426 1.258 1.654 3.682.402 5.155-1.007 1.372-3.163 1.93-4.743 1.14-.087-.032-.165-.078-.244-.117-.056-.03-.118-.062-.173-.109-.071-.03-.141-.085-.212-.139a3.688 3.688 0 01-.913-.899c-.204.085-.433.24-.44.527-.016 1.45 3.115 1.485 4.208 1.686.676.124 1.046.217 1.219.287h.008c.063.016.126.04.189.062h.023l.047.023c1.25.505 2.092 1.435 2.094 2.496zm-2.354-2.17a2.843 2.843 0 00-.99-.224c-.142 0-.237-.008-.237-.008-.362 0-.732.046-1.109.155-2.14.418-3.98 3.302-1.51 4.419.024.008.04.015.063.03.087.032.181.063.276.094 1.344.395 3.201-.24 4.074-1.31 1.007-1.194.747-2.598-.567-3.155zm-3.57-2.267c.023.015.04.03.063.038.079.047.157.085.243.124 1.29.52 2.809-.318 3.571-1.465.157-.224.3-.473.402-.721.495-1.132.44-2.333-.126-3.132a1.973 1.973 0 00-.574-.566c-.021-.01-.044-.028-.068-.045.008.004.011.01.02.014-.024-.015-.047-.03-.078-.046-.016-.007-.016-.015-.032-.015l-.197-.101c-3.17-1.147-5.898 4.27-3.224 5.915zM23.663 5.495c.012-.34.024-.682.033-1.021l-2.01-1.642c-.339.075-.677.147-1.012.222.125.813.247 1.63.375 2.444 0 .015.003.027.006.042a4.715 4.715 0 00-.555-.378.31.31 0 00-.055-.04c-.009-.006-.015-.006-.024-.006a4.863 4.863 0 00-2.425-.64c-2.69 0-4.89 2.16-4.89 4.82a4.75 4.75 0 002.05 3.906c.09.07.174.132.269.177.07.055.14.094.21.133.1.054.204.108.305.147a4.925 4.925 0 005.536-.976v1.603h1.37V9.963c.034-.22.049-.442.049-.667a4.77 4.77 0 00-1.78-3.708h.04c.838-.03 1.673-.063 2.508-.093zm-2.812 5.428c-.58.976-1.423 1.733-2.377 2.102-.807.324-1.611.34-2.294.063a2.488 2.488 0 01-.31-.153c-.025-.015-.046-.033-.07-.048-1.511-.925-1.816-3.237-.65-5.21.57-.987 1.414-1.735 2.377-2.113a3.483 3.483 0 011.267-.255c.36 0 .704.063 1.027.195l.25.123a.703.703 0 01.13.075c1.512.925 1.807 3.24.65 5.221z" fill="#fff"/><path d="M17.274 12.124c-.244.472-.77.685-1.179.48-.408-.206-.54-.756-.295-1.224.246-.472.773-.688 1.181-.48.409.203.54.753.293 1.224zM16.14 9.969c-.136.51-.563.843-.95.741-.39-.099-.594-.597-.457-1.108.134-.513.56-.846.95-.744.39.102.595.597.458 1.11zm3.398 1.756c-.381.375-.972.4-1.323.054-.347-.345-.322-.928.055-1.3.381-.375.972-.4 1.323-.054.347.345.323.928-.055 1.3zM17.1 7.95c-.344.41-.874.535-1.182.283-.31-.255-.283-.79.058-1.198.345-.408.872-.531 1.182-.28.311.253.284.79-.058 1.196zm2.493-.435c-.299.439-.85.592-1.231.343-.378-.253-.445-.814-.146-1.252.298-.439.85-.592 1.23-.343.378.253.445.811.147 1.252zm1.154 1.91c-.298.439-.874.577-1.285.306-.412-.273-.503-.85-.205-1.288.302-.441.875-.576 1.286-.306.411.273.503.85.204 1.288z" fill="#fff"/></svg><svg fill="none" viewBox="0 0 22 18" id="mail" xmlns="http://www.w3.org/2000/svg"><path fill-rule="evenodd" clip-rule="evenodd" d="M0 3a3 3 0 013-3h16a3 3 0 013 3v12a3 3 0 01-3 3H3a3 3 0 01-3-3V3zm3-1a1 1 0 00-1 1v1.434l9 5.4 9-5.4V3a1 1 0 00-1-1H3zm17 4.766l-7.971 4.783a2 2 0 01-2.058 0L2 6.766V15a1 1 0 001 1h16a1 1 0 001-1V6.766z" fill="#4E4E4E"/></svg><svg fill="none" viewBox="0 0 32 32" id="messenger" xmlns="http://www.w3.org/2000/svg"><path fill-rule="evenodd" clip-rule="evenodd" d="M16 32C7.163 32 0 24.837 0 16S7.163 0 16 0s16 7.163 16 16-7.163 16-16 16zm-6.095-9.839v3.415l3.193-1.815c.89.256 1.837.395 2.817.395 5.255 0 9.515-3.975 9.515-8.878 0-4.903-4.26-8.878-9.515-8.878-5.255 0-9.515 3.975-9.515 8.878 0 2.776 1.366 5.255 3.505 6.883z" fill="#4E4E4E"/><path fill-rule="evenodd" clip-rule="evenodd" d="M14.899 12.846L9.768 18.28l4.67-2.562 2.44 2.562 5.102-5.433-4.618 2.518-2.463-2.518z" fill="#4E4E4E"/></svg><svg fill="none" viewBox="0 0 20 20" id="phone" xmlns="http://www.w3.org/2000/svg"><path fill-rule="evenodd" clip-rule="evenodd" d="M1.475 1.727a2.831 2.831 0 014.465-.183l1.907 2.253a2 2 0 01.188 2.321L6.566 8.566c.118.193.277.423.481.685.364.468.83.987 1.348 1.505.874.874 1.851 1.698 2.693 2.256l2.4-1.44a2 2 0 012.321.188l2.362 1.998a2.72 2.72 0 01-.176 4.29c-2.225 1.59-5.216 1.968-7.667.473-1.689-1.032-3.759-2.487-5.61-4.339A25.092 25.092 0 01.874 9.205c-1.438-2.439-.932-5.332.6-7.478zm2.938 1.109a.831.831 0 00-1.31.054c-1.193 1.668-1.447 3.7-.505 5.299a23.094 23.094 0 003.534 4.579c1.704 1.704 3.634 3.066 5.238 4.045 1.654 1.01 3.776.813 5.463-.392a.72.72 0 00.046-1.136l-2.362-1.998-2.921 1.752a1 1 0 01-1.008.013C9.439 14.4 8.097 13.287 6.98 12.17a18.708 18.708 0 01-1.512-1.692c-.413-.531-.78-1.086-.976-1.59a1 1 0 01.074-.878L6.32 5.089 4.413 2.836z" fill="#4E4E4E"/></svg><svg fill="none" viewBox="0 0 72 72" id="play-main" xmlns="http://www.w3.org/2000/svg"><path d="M72 36a36 36 0 11-72 0 36 36 0 0172 0zM30.555 22.919A2.25 2.25 0 0027 24.75v22.5a2.25 2.25 0 003.555 1.831l15.75-11.25a2.249 2.249 0 000-3.663l-15.75-11.25z" fill="#F0EDE6"/></svg><svg fill="none" viewBox="0 0 149 150" id="send" xmlns="http://www.w3.org/2000/svg"><path d="M123.837 26.115l8.594 5.998c2.672 1.865 2.088 5.979-.999 7.03l-9.733 3.316c-3.19 1.087-6.2-2.035-4.997-5.184l1.023-2.678a3.974 3.974 0 00.232-1.91l-.348-2.815c-.424-3.42 3.403-5.728 6.228-3.757z" fill="#DDAD96" stroke="#DDAD96"/><path opacity=".2" d="M115.298 32.363a1 1 0 01-.166 1.993l.166-1.993zM48.485 100.09l.633-.774-.633.774zm.5 47.969a1 1 0 01-1.803.866l1.803-.866zm-2.98-1.627a1 1 0 111.814-.842l-1.814.842zm-.356-5.679a1 1 0 01-1.836.795l1.836-.795zm-3.925-4.23a1.001 1.001 0 011.858-.741l-1.858.741zm-.034-5.712a1 1 0 11-1.88.682l1.88-.682zm-3.623-4.393a1 1 0 011.903-.616l-1.903.616zm.347-5.753a1 1 0 01-1.925.542l1.925-.542zm-3.281-4.702a1 1 0 011.946-.459l-1.946.459zm.852-5.653a1 1 0 01-1.967.365l1.967-.365zm-2.811-4.974a1 1 0 011.983-.258l-1.983.258zm1.457-5.526a1 1 0 01-1.995.136l1.995-.136zm-2.181-5.294a1 1 0 112 .002l-2-.002zm2.213-5.286a1 1 0 11-1.993-.162l1.993.162zm-1.308-5.585a1 1 0 011.97.343l-1.97-.343zm3.137-4.791a1 1 0 11-1.924-.547l1.924.547zm-.125-5.715a1 1 0 111.846.77l-1.846-.77zm4.17-3.91a1 1 0 11-1.726-1.009l1.726 1.01zm1.399-5.555a1 1 0 111.558 1.254l-1.558-1.254zm5.125-2.526a1 1 0 01-1.34-1.486l1.34 1.486zm3.06-4.832a1 1 0 111.072 1.688l-1.071-1.688zm5.678-.706a1 1 0 11-.765-1.848l.766 1.848zm4.514-3.51a1 1 0 01.432 1.953l-.431-1.953zm5.572 1.284a1 1 0 01-.082-1.998l.082 1.998zm5.453-1.733a1 1 0 11-.274 1.981l.274-1.98zm4.773 3.15a1 1 0 01.626-1.9l-.626 1.9zm5.71.316a1 1 0 11-.966 1.751l.965-1.752zm3.312 4.662a1 1 0 011.275-1.54l-1.275 1.54zm5.206 2.42a1 1 0 01-1.56 1.253l1.56-1.253zm1.214 5.61a1 1 0 011.796-.88l-1.796.88zm3.701 4.388a1 1 0 11-1.943.475l1.943-.475zm-1.239 5.61a1 1 0 011.999-.07l-1.999.07zm1.655 5.5a1 1 0 01-1.976-.313l1.976.313zm-3.258 4.734a1 1 0 111.886.666l-1.886-.666zm-.431 5.73a1 1 0 01-1.737-.992l1.737.991zm-4.712 3.29a1 1 0 011.535 1.282L87.27 97.06zm-2.34 5.146a1 1 0 11-1.269-1.546l1.269 1.546zm-5.414 1.215a1 1 0 11.937 1.767l-.937-1.767zm-4.045 3.797a1 1 0 11-.566-1.918l.566 1.918zm-5.46-.988a1 1 0 01.178 1.992l-.178-1.992zm-5.194 1.954a1 1 0 01.205-1.99l-.205 1.99zm-4.699-2.957a1 1 0 01-.563 1.919l.563-1.919zm-5.549-.024a1.001 1.001 0 01.881-1.796l-.88 1.796zm-3.44-4.362a1 1 0 11-1.151 1.636l1.15-1.636zm-5.35-1.77a1 1 0 011.348-1.477l-1.348 1.478zm-2.236-5.17a1 1 0 01-1.523 1.297l1.523-1.297zm-4.751-3.13a1 1 0 111.705-1.044l-1.705 1.045zm-.555-5.611a1 1 0 01-1.868.712l1.868-.712zm-3.287-4.612a1 1 0 011.977-.306l-1.977.306zm1.75-5.376a1 1 0 11-1.996-.127l1.996.127zm-1.08-5.547a1 1 0 011.929.53l-1.929-.53zm3.734-4.27a1 1 0 01-1.803-.864l1.803.864zm.92-5.573a1 1 0 111.653 1.125l-1.653-1.125zm4.842-2.957a1 1 0 11-1.497-1.326l1.497 1.326zm2.305-5.168a1 1 0 111.346 1.48l-1.346-1.48zm5.373-1.845a1 1 0 01-1.2-1.599l1.2 1.6zm3.227-4.644a1 1 0 111.066 1.693l-1.066-1.693zm5.594-.925a1 1 0 01-.938-1.767l.938 1.767zm3.9-4.123a1 1 0 11.815 1.826l-.816-1.826zm5.67-.157a1 1 0 01-.699-1.874l.699 1.874zm4.375-3.594a1 1 0 01.586 1.912l-.586-1.912zm5.643.517a1 1 0 01-.478-1.942l.478 1.942zm4.757-3.08a1 1 0 11.373 1.965l-.373-1.965zm5.557 1.122a1 1 0 01-.27-1.982l.27 1.982zm5.054-2.57a1 1 0 11.169 1.993l-.17-1.993zm5.415 1.677a1 1 0 01-.071-1.998l.071 1.998zm5.281-2.06a1 1 0 11-.025 2l.025-2zm5.229 2.191a1 1 0 01.12-1.996l-.12 1.996zM47.181 148.925a223.49 223.49 0 01-1.176-2.493l1.814-.842c.38.817.768 1.64 1.166 2.469l-1.803.866zm-3.368-7.377a188.963 188.963 0 01-2.09-5.025l1.859-.741c.65 1.631 1.339 3.289 2.067 4.971l-1.836.795zm-4.004-10.055a155.397 155.397 0 01-1.742-5.075l1.903-.616c.53 1.64 1.104 3.31 1.72 5.009l-1.88.682zm-3.32-10.286a126.466 126.466 0 01-1.356-5.244l1.946-.459c.397 1.684.841 3.404 1.335 5.161l-1.925.542zm-2.47-10.532a100.367 100.367 0 01-.845-5.339l1.983-.258c.221 1.7.496 3.444.828 5.232l-1.967.365zm-1.383-10.729a78.072 78.072 0 01-.186-5.43l2 .002a76.056 76.056 0 00.181 5.292l-1.995.136zm.033-10.878a59.74 59.74 0 01.686-5.423l1.97.343a57.87 57.87 0 00-.662 5.242l-1.993-.162zm1.899-10.76a46.142 46.142 0 011.799-5.169l1.846.77a44.14 44.14 0 00-1.721 4.945l-1.924-.547zM38.81 68.22a37.245 37.245 0 013.125-4.546l1.558 1.254a35.26 35.26 0 00-2.957 4.302l-1.726-1.01zm6.91-8.558a32.893 32.893 0 014.4-3.346l1.072 1.688a30.896 30.896 0 00-4.132 3.144l-1.34-1.486zm9.313-5.9a31.658 31.658 0 015.28-1.662l.43 1.953a29.68 29.68 0 00-4.944 1.557l-.766-1.848zm10.77-2.376a31.114 31.114 0 015.534.265l-.274 1.981a29.115 29.115 0 00-5.178-.248l-.083-1.998zm10.933 1.516a29.993 29.993 0 015.083 2.215l-.965 1.751a27.989 27.989 0 00-4.744-2.067l.626-1.9zm9.671 5.337c.71.587 1.396 1.21 2.056 1.871l-1.414 1.415a27.606 27.606 0 00-1.917-1.746l1.275-1.54zm2.056 1.871c.67.671 1.296 1.368 1.875 2.089l-1.56 1.253a23.923 23.923 0 00-1.729-1.927l1.414-1.415zm4.885 6.819a25.921 25.921 0 011.905 5.268l-1.943.475a23.924 23.924 0 00-1.758-4.862l1.796-.881zm2.665 10.808a29.126 29.126 0 01-.344 5.57l-1.976-.313c.273-1.725.382-3.463.321-5.187l1.999-.07zm-1.716 10.97a31.235 31.235 0 01-2.317 5.063l-1.737-.99a29.237 29.237 0 002.168-4.74l1.886.667zm-5.494 9.636a31.125 31.125 0 01-1.88 2.056l-1.415-1.414a29.274 29.274 0 001.76-1.925l1.535 1.283zm-1.88 2.056a27.44 27.44 0 01-1.995 1.808l-1.269-1.546a25.343 25.343 0 001.849-1.676l1.414 1.414zm-6.472 4.79a26.868 26.868 0 01-4.982 2.03l-.566-1.918c1.596-.471 3.14-1.1 4.611-1.879l.937 1.767zm-10.264 3.034a28.05 28.05 0 01-5.372-.038l.205-1.99c1.682.173 3.35.183 4.989.036l.178 1.992zm-10.634-1.076a31.306 31.306 0 01-4.986-1.943l.881-1.796a29.307 29.307 0 004.668 1.82l-.563 1.919zm-9.577-4.669a36.542 36.542 0 01-2.125-1.614l1.266-1.548a34.56 34.56 0 002.01 1.526l-1.151 1.636zm-2.125-1.614a50.485 50.485 0 01-2.074-1.791l1.348-1.477a48.441 48.441 0 001.992 1.72l-1.266 1.548zm-5.833-5.665a35.19 35.19 0 01-3.228-4.426l1.705-1.045a33.194 33.194 0 003.046 4.174L42.019 95.2zm-5.651-9.326a26.172 26.172 0 01-1.419-5.324l1.977-.306a24.163 24.163 0 001.31 4.918l-1.868.712zm-1.665-10.827a26.93 26.93 0 01.916-5.42l1.929.53a24.934 24.934 0 00-.85 5.017l-1.995-.127zm2.847-10.554a36.116 36.116 0 012.723-4.709l1.653 1.125a34.113 34.113 0 00-2.573 4.448l-1.803-.864zm6.068-8.992a50.14 50.14 0 013.802-3.842l1.346 1.48a48.118 48.118 0 00-3.651 3.688L43.618 55.5zm7.974-7.286a65.353 65.353 0 014.428-3.045l1.066 1.693a63.28 63.28 0 00-4.292 2.951l-1.202-1.599zm9.084-5.737a79.149 79.149 0 014.837-2.356l.816 1.826a77.162 77.162 0 00-4.715 2.297l-.938-1.767zm9.81-4.387a90.587 90.587 0 015.073-1.72l.586 1.912a88.532 88.532 0 00-4.961 1.682l-.699-1.874zm10.238-3.145a99.432 99.432 0 015.235-1.138l.373 1.965c-1.742.33-3.453.703-5.13 1.115l-.478-1.942zm10.522-1.998a106.01 106.01 0 015.324-.588l.169 1.993c-1.766.15-3.507.343-5.223.577l-.27-1.982zm10.668-.91c1.765-.062 3.549-.083 5.352-.06l-.025 2a109.096 109.096 0 00-5.256.06l-.071-2zm10.701.134a115 115 0 012.683.192l-.166 1.993c-.883-.074-1.762-.137-2.637-.189l.12-1.996z" fill="#DDAD96"/></svg><svg fill="none" viewBox="0 0 32 32" id="telegram" xmlns="http://www.w3.org/2000/svg"><path fill-rule="evenodd" clip-rule="evenodd" d="M16 32C7.163 32 0 24.837 0 16S7.163 0 16 0s16 7.163 16 16-7.163 16-16 16zm.692-19.993c-1.433.596-4.297 1.83-8.592 3.701-.698.278-1.063.549-1.096.814-.056.449.505.625 1.27.866.104.032.212.066.322.102.752.245 1.764.53 2.29.542.477.01 1.01-.186 1.598-.59 4.013-2.709 6.084-4.078 6.214-4.108.092-.02.22-.047.305.03.087.076.078.221.069.26-.056.237-2.26 2.287-3.4 3.347-.356.33-.608.565-.66.619-.115.12-.233.233-.346.342-.699.674-1.223 1.179.029 2.004.602.396 1.083.724 1.563 1.051.525.358 1.048.714 1.725 1.158.172.113.337.23.497.344.61.436 1.16.826 1.837.764.393-.036.8-.406 1.007-1.51.488-2.61 1.447-8.263 1.669-10.592a2.602 2.602 0 00-.025-.58.621.621 0 00-.21-.4c-.176-.143-.448-.173-.57-.17-.554.009-1.405.305-5.496 2.006z" fill="#4E4E4E"/></svg><svg fill="none" viewBox="0 0 32 32" id="viber" xmlns="http://www.w3.org/2000/svg"><path fill-rule="evenodd" clip-rule="evenodd" d="M16 32c8.837 0 16-7.163 16-16S24.837 0 16 0 0 7.163 0 16s7.163 16 16 16zm6.063-16.64c-.625-3.33-2.055-4.907-5.434-5.421a2.488 2.488 0 00-.164-.013c-.266-.016-.572-.034-.565-.328.032-.407.305-.39.548-.373.08.005.155.01.219 0 3.238.1 6.045 3.021 6.003 6.169 0 .06.012.12.025.19l.006.03.004.02v.037c0 .246.001.486-.339.478-.338 0-.323-.276-.31-.546.004-.054.007-.108.007-.16v-.082zm-1.19 3.042c.295.203.594.408.875.628.078.065.159.127.24.19.506.388 1.007.773.706 1.596-.357.98-1.586 1.984-2.64 1.968a8.07 8.07 0 00-.071-.015 3.403 3.403 0 01-.635-.176c-3.77-1.586-6.692-4.01-8.677-7.332-.465-.756-.855-1.561-1.22-2.425-.64-1.536.024-2.832 1.644-3.371.29-.083.572-.1.855 0 .697.258 2.441 2.608 2.474 3.313.025.54-.34.83-.714 1.071-.448.308-.614.656-.59 1.055.01.208.075.431.175.664.681 1.503 1.835 2.524 3.338 3.18.54.241 1.063.216 1.436-.332.656-.971 1.47-.922 2.359-.324.145.104.295.207.445.31zm-3.792-7.571c-.301-.049-.624-.101-.689.278-.068.376.24.42.522.461.061.009.121.017.176.03 2.092.456 2.806 1.203 3.155 3.23a1.6 1.6 0 01.025.282c.025.24.083.456.448.39.183-.025.25-.124.258-.265.013-.069.012-.15.01-.227a1.205 1.205 0 01.006-.18c.009-1.952-1.694-3.72-3.77-3.978a4.232 4.232 0 01-.141-.021zm-.183 1.881c.084-.233.3-.258.515-.258.922-.025 2.001 1.064 1.985 2.002.016.207-.008.406-.15.514a.397.397 0 01-.182.05.325.325 0 01-.282-.107.577.577 0 01-.1-.283c-.091-.83-.54-1.329-1.395-1.453-.257-.042-.515-.133-.39-.465z" fill="#4E4E4E"/></svg><svg fill="none" viewBox="0 0 32 32" id="whatsapp" xmlns="http://www.w3.org/2000/svg"><path fill-rule="evenodd" clip-rule="evenodd" d="M12.6 21.7c1 .6 2.2.9 3.4.9 3.7 0 6.6-3 6.6-6.5 0-1.8-.6-3.4-1.9-4.7-1.3-1.2-2.9-1.9-4.7-1.9-3.6 0-6.6 3-6.6 6.6 0 1.2.3 2.4 1 3.5l.2.3-.7 2.4 2.5-.7.2.1zm5.6-4.7c.2 0 1.2.5 1.4.6.031.016.062.029.093.042.167.07.323.136.407.558.1 0 .1.4-.1.9-.1.4-.9.9-1.3.9-.068 0-.133.006-.202.012-.34.03-.786.07-2.198-.512-1.753-.701-2.968-2.4-3.309-2.877a1.856 1.856 0 00-.091-.123c-.017-.034-.052-.088-.097-.16-.221-.35-.703-1.11-.703-1.94 0-1 .5-1.5.7-1.7.2-.2.4-.2.5-.2h.4c.1 0 .3 0 .4.3.2.4.6 1.4.6 1.5 0 .033.011.067.022.1.023.067.045.133-.022.2-.05.05-.075.1-.1.15-.025.05-.05.1-.1.15l-.3.3c-.1.1-.2.2-.1.4s.5.9 1.1 1.4c.675.59 1.208.825 1.478.944.05.022.09.04.122.056.2 0 .3 0 .4-.1.05-.1.175-.25.3-.4.125-.15.25-.3.3-.4.1-.2.2-.2.4-.1z" fill="#4E4E4E"/><path fill-rule="evenodd" clip-rule="evenodd" d="M0 16C0 7.163 7.163 0 16 0s16 7.163 16 16-7.163 16-16 16S0 24.837 0 16zm16-8c2.1 0 4.1.8 5.6 2.3 1.5 1.5 2.4 3.5 2.4 5.6 0 4.4-3.6 8-8 8-1.3 0-2.6-.4-3.8-1L8 24l1.1-4C8.4 18.8 8 17.4 8 16c0-4.4 3.6-8 8-8z" fill="#4E4E4E"/></svg><svg fill="none" viewBox="0 0 32 32" id="youtube" xmlns="http://www.w3.org/2000/svg"><path fill-rule="evenodd" clip-rule="evenodd" d="M0 16C0 7.163 7.163 0 16 0s16 7.163 16 16-7.163 16-16 16S0 24.837 0 16zm24.177-3.951a2.167 2.167 0 00-1.51-1.55c-1.33-.366-6.667-.366-6.667-.366s-5.337 0-6.668.367a2.167 2.167 0 00-1.509 1.549c-.356 1.366-.356 4.218-.356 4.218s0 2.85.356 4.218a2.167 2.167 0 001.51 1.549C10.662 22.4 16 22.4 16 22.4s5.337 0 6.668-.366a2.167 2.167 0 001.509-1.55c.356-1.366.356-4.217.356-4.217s0-2.852-.356-4.218z" fill="#4E4E4E"/><path fill-rule="evenodd" clip-rule="evenodd" d="M14.4 19.2v-5.333l4.267 2.666L14.4 19.2z" fill="#4E4E4E"/></svg></svg>