<svg width="54" height="54" viewBox="0 0 54 54" fill="none" xmlns="http://www.w3.org/2000/svg">
<path d="M18.7559 23.5605C15.1915 20.4244 14.5198 15.0801 17.1984 11.1692V11.1692C19.877 7.25827 25.0438 6.03975 29.178 8.34396L34.9994 11.5886C40.177 14.4744 41.7666 21.2619 38.4118 26.1599V26.1599C35.0571 31.058 28.2391 31.9042 23.775 27.9765L18.7559 23.5605Z" fill="#EEDDD3"/>
<mask id="path-2-outside-1_908_102" maskUnits="userSpaceOnUse" x="6" y="14.4326" width="42" height="39" fill="black">
<rect fill="white" x="6" y="14.4326" width="42" height="39"/>
<path d="M45.5 36.7155C43.858 36.7155 42.522 35.3708 42.522 33.7182C42.522 32.0636 43.858 30.7189 45.5 30.7189C45.898 30.7189 46.28 30.5599 46.56 30.2781C46.842 29.9943 47 29.6098 47 29.2092L46.998 23.7702C46.998 19.1727 43.28 15.4326 38.712 15.4326H15.288C10.72 15.4326 7.002 19.1727 7.002 23.7702L7 29.3843C7 29.7849 7.158 30.1694 7.44 30.4532C7.72 30.735 8.102 30.894 8.5 30.894C10.198 30.894 11.478 32.1079 11.478 33.7182C11.478 35.3708 10.142 36.7155 8.5 36.7155C7.672 36.7155 7 37.3918 7 38.2252V43.6601C7 48.2577 10.716 51.9998 15.286 51.9998H38.714C43.284 51.9998 47 48.2577 47 43.6601V38.2252C47 37.3918 46.328 36.7155 45.5 36.7155"/>
</mask>
<path d="M45.5 36.7155C43.858 36.7155 42.522 35.3708 42.522 33.7182C42.522 32.0636 43.858 30.7189 45.5 30.7189C45.898 30.7189 46.28 30.5599 46.56 30.2781C46.842 29.9943 47 29.6098 47 29.2092L46.998 23.7702C46.998 19.1727 43.28 15.4326 38.712 15.4326H15.288C10.72 15.4326 7.002 19.1727 7.002 23.7702L7 29.3843C7 29.7849 7.158 30.1694 7.44 30.4532C7.72 30.735 8.102 30.894 8.5 30.894C10.198 30.894 11.478 32.1079 11.478 33.7182C11.478 35.3708 10.142 36.7155 8.5 36.7155C7.672 36.7155 7 37.3918 7 38.2252V43.6601C7 48.2577 10.716 51.9998 15.286 51.9998H38.714C43.284 51.9998 47 48.2577 47 43.6601V38.2252C47 37.3918 46.328 36.7155 45.5 36.7155" fill="#E3C8B7"/>
<path d="M45.5 37.7155C46.0523 37.7155 46.5 37.2678 46.5 36.7155C46.5 36.1632 46.0523 35.7155 45.5 35.7155V37.7155ZM46.56 30.2781L45.8506 29.5733L45.8506 29.5733L46.56 30.2781ZM47 29.2092L48 29.2092L48 29.2088L47 29.2092ZM46.998 23.7702L45.998 23.7702L45.998 23.7706L46.998 23.7702ZM7.002 23.7702L8.002 23.7706V23.7702H7.002ZM7 29.3843L6 29.384V29.3843H7ZM7.44 30.4532L8.14938 29.7484L8.14938 29.7484L7.44 30.4532ZM45.5 35.7155C44.9477 35.7155 44.5 36.1632 44.5 36.7155C44.5 37.2678 44.9477 37.7155 45.5 37.7155V35.7155ZM45.5 35.7155C44.4164 35.7155 43.522 34.8246 43.522 33.7182H41.522C41.522 35.917 43.2996 37.7155 45.5 37.7155V35.7155ZM43.522 33.7182C43.522 32.6093 44.4168 31.7189 45.5 31.7189V29.7189C43.2992 29.7189 41.522 31.5178 41.522 33.7182H43.522ZM45.5 31.7189C46.1642 31.7189 46.8016 31.4538 47.2694 30.9829L45.8506 29.5733C45.7584 29.666 45.6318 29.7189 45.5 29.7189V31.7189ZM47.2694 30.9829C47.7383 30.511 48 29.8728 48 29.2092H46C46 29.3468 45.9457 29.4775 45.8506 29.5733L47.2694 30.9829ZM48 29.2088L47.998 23.7699L45.998 23.7706L46 29.2096L48 29.2088ZM47.998 23.7702C47.998 18.6262 43.838 14.4326 38.712 14.4326V16.4326C42.722 16.4326 45.998 19.7192 45.998 23.7702H47.998ZM38.712 14.4326H15.288V16.4326H38.712V14.4326ZM15.288 14.4326C10.162 14.4326 6.002 18.6262 6.002 23.7702H8.002C8.002 19.7192 11.278 16.4326 15.288 16.4326V14.4326ZM6.002 23.7699L6 29.384L8 29.3847L8.002 23.7706L6.002 23.7699ZM6 29.3843C6 30.048 6.26173 30.6861 6.73062 31.158L8.14938 29.7484C8.05427 29.6527 8 29.5219 8 29.3843H6ZM6.73062 31.158C7.19843 31.6289 7.83581 31.894 8.5 31.894V29.894C8.36819 29.894 8.24157 29.8412 8.14938 29.7484L6.73062 31.158ZM8.5 31.894C9.69637 31.894 10.478 32.7095 10.478 33.7182H12.478C12.478 31.5062 10.6996 29.894 8.5 29.894V31.894ZM10.478 33.7182C10.478 34.8246 9.58364 35.7155 8.5 35.7155V37.7155C10.7004 37.7155 12.478 35.917 12.478 33.7182H10.478ZM8.5 35.7155C7.11364 35.7155 6 36.8456 6 38.2252H8C8 37.938 8.23036 37.7155 8.5 37.7155V35.7155ZM6 38.2252V43.6601H8V38.2252H6ZM6 43.6601C6 48.8038 10.1575 52.9998 15.286 52.9998V50.9998C11.2745 50.9998 8 47.7117 8 43.6601H6ZM15.286 52.9998H38.714V50.9998H15.286V52.9998ZM38.714 52.9998C43.8425 52.9998 48 48.8038 48 43.6601H46C46 47.7117 42.7255 50.9998 38.714 50.9998V52.9998ZM48 43.6601V38.2252H46V43.6601H48ZM48 38.2252C48 36.8456 46.8864 35.7155 45.5 35.7155V37.7155C45.7696 37.7155 46 37.938 46 38.2252H48Z" fill="url(#paint0_linear_908_102)" mask="url(#path-2-outside-1_908_102)"/>
<path d="M33.8612 32.8803L31.5032 35.2125L32.0612 38.5096C32.1572 39.0805 31.9312 39.6432 31.4692 39.9804C31.0112 40.3217 30.4132 40.3644 29.9092 40.0922L26.9992 38.5381L24.0832 40.0942C23.8672 40.21 23.6312 40.2709 23.3972 40.2709C23.0912 40.2709 22.7892 40.1734 22.5292 39.9825C22.0692 39.6432 21.8432 39.0805 21.9392 38.5096L22.4952 35.2125L20.1372 32.8803C19.7292 32.4781 19.5872 31.8869 19.7632 31.3364C19.9412 30.7879 20.4012 30.3978 20.9632 30.3165L24.2152 29.8351L25.6732 26.8345C25.9272 26.3185 26.4352 25.9976 26.9992 25.9976H27.0032C27.5692 25.9996 28.0772 26.3206 28.3272 26.8366L29.7852 29.8351L33.0432 30.3186C33.5992 30.3978 34.0592 30.7879 34.2352 31.3364C34.4132 31.8869 34.2712 32.4781 33.8612 32.8803Z" fill="url(#paint1_linear_908_102)"/>
<path d="M33.7911 32.8089L33.7908 32.8092L31.4328 35.1414L31.3959 35.1779L31.4046 35.2292L31.9625 38.5262C31.9626 38.5262 31.9626 38.5263 31.9626 38.5263C32.0524 39.0605 31.841 39.5852 31.4102 39.8997L31.4094 39.9003C30.9828 40.2182 30.4266 40.258 29.9567 40.0042L29.9563 40.004L27.0463 38.4499L26.9992 38.4247L26.9521 38.4498L24.0361 40.006L24.0359 40.0061C23.8337 40.1145 23.6138 40.1709 23.3972 40.1709C23.1128 40.1709 22.8315 40.0804 22.5885 39.902C22.1592 39.5854 21.9479 39.0604 22.0378 38.5262L22.5938 35.2291L22.6024 35.1779L22.5655 35.1414L20.2075 32.8092L20.2074 32.8091C19.8268 32.4339 19.6937 31.8823 19.8583 31.367C20.0248 30.8543 20.4538 30.4912 20.9775 30.4155L20.9778 30.4155L24.2298 29.934L24.282 29.9263L24.3051 29.8788L25.7629 26.8787C25.7629 26.8786 25.763 26.8785 25.763 26.8785C26.0007 26.3959 26.4744 26.0976 26.9992 26.0976H27.003C27.5303 26.0995 28.0037 26.3982 28.2372 26.8802L28.2372 26.8803L29.6952 29.8788L29.7183 29.9263L29.7705 29.934L33.0285 30.4175L33.0291 30.4176C33.5464 30.4913 33.9754 30.8541 34.1399 31.3669L34.14 31.3671C34.3065 31.8822 34.1736 32.4337 33.7911 32.8089Z" stroke="url(#paint2_linear_908_102)" stroke-opacity="0.5" stroke-width="0.2"/>
<defs>
<linearGradient id="paint0_linear_908_102" x1="13.3673" y1="19.6927" x2="43.0912" y2="52.8142" gradientUnits="userSpaceOnUse">
<stop stop-color="white" stop-opacity="0.25"/>
<stop offset="1" stop-color="white" stop-opacity="0"/>
</linearGradient>
<linearGradient id="paint1_linear_908_102" x1="33.2739" y1="28.575" x2="16.9877" y2="29.119" gradientUnits="userSpaceOnUse">
<stop stop-color="white"/>
<stop offset="1" stop-color="white" stop-opacity="0.2"/>
</linearGradient>
<linearGradient id="paint2_linear_908_102" x1="21.264" y1="30.7856" x2="33.6798" y2="30.8558" gradientUnits="userSpaceOnUse">
<stop stop-color="white"/>
<stop offset="1" stop-color="white" stop-opacity="0"/>
</linearGradient>
</defs>
</svg>
